<svg width="50" height="54" viewBox="0 0 50 54" fill="none" xmlns="http://www.w3.org/2000/svg">
<path fill-rule="evenodd" clip-rule="evenodd" d="M26.6667 23.5V11.6667C26.6667 11.2246 26.4911 10.8007 26.1785 10.4882C25.866 10.1756 25.442 10 25 10C24.558 10 24.1341 10.1756 23.8215 10.4882C23.5089 10.8007 23.3334 11.2246 23.3334 11.6667V23.5L19.6667 19C19.5354 18.8249 19.3708 18.6774 19.1825 18.5658C18.9942 18.4543 18.7857 18.381 18.5691 18.3501C18.3524 18.3191 18.1317 18.3311 17.9197 18.3855C17.7077 18.4398 17.5084 18.5353 17.3334 18.6666C17.1583 18.798 17.0107 18.9625 16.8992 19.1508C16.7877 19.3391 16.7144 19.5476 16.6834 19.7643C16.6525 19.9809 16.6645 20.2016 16.7188 20.4136C16.7732 20.6256 16.8687 20.8249 17 21L23.6667 29.3333C23.8219 29.5403 24.0232 29.7083 24.2547 29.824C24.4861 29.9397 24.7413 29.9999 25 29.9999C25.2588 29.9999 25.5139 29.9397 25.7454 29.824C25.9768 29.7083 26.1781 29.5403 26.3334 29.3333L33 21C33.1313 20.8249 33.2269 20.6256 33.2812 20.4136C33.3355 20.2016 33.3476 19.9809 33.3166 19.7643C33.2857 19.5476 33.2123 19.3391 33.1008 19.1508C32.9893 18.9625 32.8418 18.798 32.6667 18.6666C32.4916 18.5353 32.2923 18.4398 32.0803 18.3855C31.8683 18.3311 31.6477 18.3191 31.431 18.3501C31.2143 18.381 31.0059 18.4543 30.8175 18.5658C30.6292 18.6774 30.4647 18.8249 30.3334 19L26.6667 23.3333V23.5Z" fill="#F8F8F8"/>
<path fill-rule="evenodd" clip-rule="evenodd" d="M21.1667 34.8333L17.3333 30H13.3333C12.4493 30 11.6014 30.3512 10.9763 30.9763C10.3512 31.6014 10 32.4493 10 33.3333V40C10 41.8333 11.5 43.3333 13.3333 43.3333H36.6667C37.5507 43.3333 38.3986 42.9821 39.0237 42.357C39.6488 41.7319 40 40.884 40 40V33.3333C40 32.4493 39.6488 31.6014 39.0237 30.9763C38.3986 30.3512 37.5507 30 36.6667 30H32.6667L28.8333 34.8333C28.364 35.3937 27.7776 35.8444 27.1153 36.1536C26.453 36.4628 25.7309 36.6231 25 36.6231C24.2691 36.6231 23.547 36.4628 22.8847 36.1536C22.2224 35.8444 21.636 35.3937 21.1667 34.8333ZM33.3333 35C32.8913 35 32.4674 35.1756 32.1548 35.4881C31.8423 35.8007 31.6667 36.2246 31.6667 36.6666C31.6667 37.1087 31.8423 37.5326 32.1548 37.8452C32.4674 38.1577 32.8913 38.3333 33.3333 38.3333C33.7754 38.3333 34.1993 38.1577 34.5118 37.8452C34.8244 37.5326 35 37.1087 35 36.6666C35 36.2246 34.8244 35.8007 34.5118 35.4881C34.1993 35.1756 33.7754 35 33.3333 35Z" fill="#F8F8F8"/>
</svg>
