<svg width="50" height="50" viewBox="0 0 50 50" fill="none" xmlns="http://www.w3.org/2000/svg">
<path d="M20.7429 10.0091C20.545 10.0339 20.3561 10.0954 20.1894 10.189C20.1894 10.189 18.4648 11.1072 16.6107 12.1003C14.7565 13.0924 12.6938 14.1859 12.2221 14.4073C12.193 14.418 12.1643 14.4296 12.1362 14.4419C10.4238 15.3359 10.068 16.7962 10.0067 17.6152C10.0026 17.6533 10.0067 17.6844 10.0067 17.7248C9.99167 18.0316 10.0067 18.2289 10.0067 18.2289V33.297C10.0067 35.4864 13.0237 36.5395 15.8867 36.5395C16.8411 36.5395 17.7954 36.4092 18.6134 36.1785C19.1587 35.9478 19.55 35.4864 19.55 35.025V22.9132C19.55 20.2602 20.2317 19.0144 22.2767 17.9763C22.822 17.7456 28.5398 14.4062 28.5398 14.4062C28.8125 14.1755 29.0933 13.7072 29.0933 13.3611V13.2527C29.0933 12.7913 28.8207 12.4383 28.4117 12.2076C28.0027 11.9769 27.4573 11.9769 27.0483 12.2076C26.912 12.323 18.5957 17.0604 16.8233 17.8678C15.051 18.7906 13.3973 19.0133 12.9883 18.5519C12.8615 18.4446 12.7511 18.1158 12.7333 17.7952V17.7225C12.7347 17.4087 12.8301 16.8182 13.5854 16.4248C14.3516 16.0638 16.2535 15.036 18.1021 14.0463C18.8833 13.6276 18.9801 13.5826 19.5923 13.2527C19.6728 13.5345 19.8759 13.7803 20.161 13.9411C20.4461 14.102 20.7923 14.1661 21.1307 14.1207C21.4692 14.0753 21.775 13.9238 21.9874 13.6963C22.1997 13.4687 22.303 13.1819 22.2767 12.8928V11.1625C22.2782 10.9981 22.2382 10.8353 22.1592 10.6851C22.0803 10.5348 21.9644 10.4006 21.8191 10.2914C21.6739 10.1821 21.5027 10.1004 21.3171 10.0517C21.1315 10.003 20.9357 9.98849 20.7429 10.0091ZM31.6496 14.0463C31.4328 14.0768 31.2279 14.1512 31.0524 14.2632C31.0524 14.2632 24.1894 18.1701 23.0006 18.8402C22.9862 18.8523 22.9721 18.8646 22.9583 18.8771C21.9713 19.5035 21.3864 20.2487 21.126 20.9304C20.9801 21.315 20.9083 21.7169 20.9133 22.1208V22.4818C20.9114 22.5176 20.9114 22.5534 20.9133 22.5891V36.5395C20.9133 38.7312 23.8963 40 26.623 40C27.85 40 28.957 39.7762 29.775 39.3148C31.411 38.5074 39.3183 33.2959 39.3183 33.2959C39.7273 33.0652 40 32.7399 40 32.3938V17.3984C40 16.8216 39.7355 16.4756 39.1902 16.2449C38.7812 16.0142 38.1091 16.1226 37.7001 16.3533C35.5187 17.7375 29.6468 21.6455 28.2835 22.3376C26.3748 23.2604 24.5766 23.4911 23.8949 22.9144C23.6223 22.6837 23.64 22.4668 23.64 22.1208C23.6482 21.9224 23.6741 21.7517 23.7259 21.6155C23.8022 21.4148 23.9577 21.168 24.5343 20.7873C24.5616 20.7689 24.548 20.77 24.5766 20.7516C25.5623 20.1944 28.5766 18.4561 30.5426 17.3257C30.6539 17.5785 30.8665 17.7903 31.1434 17.9242C31.4202 18.0581 31.7437 18.1057 32.0577 18.0586C32.3717 18.0116 32.6563 17.8729 32.862 17.6667C33.0676 17.4605 33.1813 17.1998 33.1833 16.93V15.1998C33.1849 15.0354 33.1448 14.8726 33.0659 14.7223C32.987 14.5721 32.871 14.4378 32.7258 14.3286C32.5805 14.2194 32.4094 14.1377 32.2238 14.089C32.0382 14.0403 31.8424 14.0257 31.6496 14.0463ZM37.2733 22.4818V24.7888L30.4567 29.2575V26.9505L37.2733 22.4818Z" fill="#F8F8F8"/>
</svg>
