<svg width="50" height="50" viewBox="0 0 50 50" fill="none" xmlns="http://www.w3.org/2000/svg">
<mask id="path-1-inside-1_61_9" fill="white">
<path d="M34.4392 26.3504C34.3974 25.9372 34.4652 25.533 34.4528 25.1274C34.4501 25.0388 34.5114 25.0285 34.5725 25.0296C34.8033 25.034 35.0324 25.0044 35.2622 24.9944C35.7032 24.9753 36.1396 24.92 36.5469 24.7194C37.03 24.4814 37.326 24.1063 37.4435 23.5833C37.5473 23.1219 37.5045 22.6702 37.3139 22.2442C37.1568 21.8932 36.8777 21.6546 36.5215 21.4917C36.1096 21.3034 35.678 21.2492 35.235 21.2079C34.8475 21.1718 34.4616 21.1937 34.0751 21.1882C33.9556 21.1865 33.8349 21.222 33.7127 21.2129C33.6695 21.2097 33.6534 21.2294 33.6558 21.271C33.6576 21.3041 33.6561 21.3374 33.6561 21.3706C33.6558 23.0829 33.6556 24.7951 33.6533 26.5203C33.6066 26.5842 33.5424 26.5873 33.4829 26.5992C31.992 26.8975 30.5014 27.197 29.01 27.4929C28.9452 27.5058 28.8805 27.5243 28.8026 27.4998C28.7896 26.745 28.7697 25.9947 28.7944 25.246C28.8046 24.9352 28.8131 24.6241 28.8136 24.3135C28.817 21.8649 28.8172 19.4163 28.8113 16.9677C28.811 16.8175 28.8559 16.8012 28.9898 16.7956C30.2779 16.7416 31.5669 16.7585 32.8545 16.7793C33.7586 16.7939 34.6631 16.7699 35.5661 16.8053C35.9835 16.8217 36.4019 16.8572 36.8187 16.9087C37.4816 16.9905 38.1329 17.1148 38.7616 17.3413C39.3639 17.5583 39.9182 17.8604 40.4138 18.2721C41.0977 18.8401 41.5907 19.5466 41.9477 20.3515C42.1413 20.7878 42.2664 21.2443 42.3169 21.7239C42.3558 22.0927 42.3566 22.462 42.3331 22.8269C42.2959 23.4049 42.1604 23.9698 41.9993 24.5268C41.9764 24.6058 41.9565 24.6855 41.9252 24.77C41.6863 24.8739 41.4388 24.8999 41.1986 24.9511C39.121 25.394 37.0432 25.8356 34.9654 26.2778C34.7955 26.314 34.6278 26.3745 34.4392 26.3504Z"/>
</mask>
<path d="M34.4392 26.3504C34.3974 25.9372 34.4652 25.533 34.4528 25.1274C34.4501 25.0388 34.5114 25.0285 34.5725 25.0296C34.8033 25.034 35.0324 25.0044 35.2622 24.9944C35.7032 24.9753 36.1396 24.92 36.5469 24.7194C37.03 24.4814 37.326 24.1063 37.4435 23.5833C37.5473 23.1219 37.5045 22.6702 37.3139 22.2442C37.1568 21.8932 36.8777 21.6546 36.5215 21.4917C36.1096 21.3034 35.678 21.2492 35.235 21.2079C34.8475 21.1718 34.4616 21.1937 34.0751 21.1882C33.9556 21.1865 33.8349 21.222 33.7127 21.2129C33.6695 21.2097 33.6534 21.2294 33.6558 21.271C33.6576 21.3041 33.6561 21.3374 33.6561 21.3706C33.6558 23.0829 33.6556 24.7951 33.6533 26.5203C33.6066 26.5842 33.5424 26.5873 33.4829 26.5992C31.992 26.8975 30.5014 27.197 29.01 27.4929C28.9452 27.5058 28.8805 27.5243 28.8026 27.4998C28.7896 26.745 28.7697 25.9947 28.7944 25.246C28.8046 24.9352 28.8131 24.6241 28.8136 24.3135C28.817 21.8649 28.8172 19.4163 28.8113 16.9677C28.811 16.8175 28.8559 16.8012 28.9898 16.7956C30.2779 16.7416 31.5669 16.7585 32.8545 16.7793C33.7586 16.7939 34.6631 16.7699 35.5661 16.8053C35.9835 16.8217 36.4019 16.8572 36.8187 16.9087C37.4816 16.9905 38.1329 17.1148 38.7616 17.3413C39.3639 17.5583 39.9182 17.8604 40.4138 18.2721C41.0977 18.8401 41.5907 19.5466 41.9477 20.3515C42.1413 20.7878 42.2664 21.2443 42.3169 21.7239C42.3558 22.0927 42.3566 22.462 42.3331 22.8269C42.2959 23.4049 42.1604 23.9698 41.9993 24.5268C41.9764 24.6058 41.9565 24.6855 41.9252 24.77C41.6863 24.8739 41.4388 24.8999 41.1986 24.9511C39.121 25.394 37.0432 25.8356 34.9654 26.2778C34.7955 26.314 34.6278 26.3745 34.4392 26.3504Z" fill="white"/>
<path d="M34.4392 26.3504L33.4443 26.4512L33.5244 27.2417L34.3126 27.3423L34.4392 26.3504ZM34.4528 25.1274L33.4533 25.158V25.158L34.4528 25.1274ZM34.5725 25.0296L34.5538 26.0295H34.5538L34.5725 25.0296ZM35.2622 24.9944L35.3056 25.9935H35.3056L35.2622 24.9944ZM36.5469 24.7194L36.1049 23.8224L36.1049 23.8224L36.5469 24.7194ZM37.4435 23.5833L36.4679 23.364L36.4679 23.364L37.4435 23.5833ZM37.3139 22.2442L36.4011 22.6526V22.6526L37.3139 22.2442ZM36.5215 21.4917L36.9374 20.5823L36.9374 20.5823L36.5215 21.4917ZM35.235 21.2079L35.1422 22.2036L35.1422 22.2036L35.235 21.2079ZM34.0751 21.1882L34.0608 22.1881H34.0608L34.0751 21.1882ZM33.7127 21.2129L33.6385 22.2102L33.6385 22.2102L33.7127 21.2129ZM33.6558 21.271L34.6542 21.2151L34.6542 21.2151L33.6558 21.271ZM33.6561 21.3706L34.6561 21.3708V21.3707L33.6561 21.3706ZM33.6533 26.5203L34.4605 27.1107L34.6529 26.8476L34.6533 26.5216L33.6533 26.5203ZM33.4829 26.5992L33.2868 25.6186L33.2868 25.6186L33.4829 26.5992ZM29.01 27.4929L29.2046 28.4738L29.2046 28.4738L29.01 27.4929ZM28.8026 27.4998L27.8027 27.517L27.8151 28.2375L28.5025 28.4537L28.8026 27.4998ZM28.7944 25.246L27.7949 25.2131L27.7949 25.2131L28.7944 25.246ZM28.8136 24.3135L27.8136 24.3121V24.3121L28.8136 24.3135ZM28.8113 16.9677L27.8113 16.9701V16.9701L28.8113 16.9677ZM28.9898 16.7956L28.9479 15.7964L28.9479 15.7964L28.9898 16.7956ZM32.8545 16.7793L32.8707 15.7794H32.8707L32.8545 16.7793ZM35.5661 16.8053L35.6053 15.8061H35.6053L35.5661 16.8053ZM36.8187 16.9087L36.6963 17.9011V17.9011L36.8187 16.9087ZM38.7616 17.3413L39.1005 16.4005L39.1005 16.4005L38.7616 17.3413ZM40.4138 18.2721L41.0528 17.5028L41.0528 17.5028L40.4138 18.2721ZM41.9477 20.3515L41.0337 20.757L41.0337 20.757L41.9477 20.3515ZM42.3169 21.7239L41.3225 21.8287V21.8287L42.3169 21.7239ZM42.3331 22.8269L43.331 22.8912L43.331 22.8912L42.3331 22.8269ZM41.9993 24.5268L41.0387 24.2489L41.0387 24.2489L41.9993 24.5268ZM41.9252 24.77L42.324 25.687L42.7149 25.517L42.8629 25.1173L41.9252 24.77ZM41.1986 24.9511L41.4071 25.9291H41.4071L41.1986 24.9511ZM34.9654 26.2778L35.1736 27.2559L35.1736 27.2559L34.9654 26.2778ZM35.4342 26.2496C35.4214 26.1236 35.4238 25.9839 35.4337 25.786C35.4426 25.6091 35.4601 25.3514 35.4523 25.0968L33.4533 25.158C33.4579 25.309 33.4477 25.4562 33.4362 25.6861C33.4258 25.8951 33.4152 26.164 33.4443 26.4512L35.4342 26.2496ZM35.4523 25.0968C35.4551 25.1865 35.4444 25.3352 35.3663 25.5009C35.2826 25.6786 35.1497 25.8149 35.0012 25.9036C34.8661 25.9842 34.7438 26.0105 34.6787 26.0205C34.6127 26.0306 34.5642 26.0297 34.5538 26.0295L34.5913 24.0298C34.5516 24.0291 34.2634 24.0148 33.9763 24.1861C33.5655 24.4312 33.4438 24.8493 33.4533 25.158L35.4523 25.0968ZM34.5538 26.0295C34.8103 26.0343 35.2047 25.9979 35.3056 25.9935L35.2189 23.9954C34.86 24.0109 34.7963 24.0337 34.5913 24.0298L34.5538 26.0295ZM35.3056 25.9935C35.79 25.9724 36.3935 25.9097 36.9888 25.6164L36.1049 23.8224C35.8857 23.9304 35.6164 23.9781 35.2189 23.9954L35.3056 25.9935ZM36.9888 25.6164C37.7418 25.2455 38.235 24.6221 38.4192 23.8026L36.4679 23.364C36.417 23.5905 36.3183 23.7172 36.1049 23.8224L36.9888 25.6164ZM38.4192 23.8026C38.5691 23.136 38.5076 22.4636 38.2267 21.8358L36.4011 22.6526C36.5014 22.8768 36.5255 23.1079 36.4679 23.364L38.4192 23.8026ZM38.2267 21.8358C37.9468 21.2102 37.4557 20.8193 36.9374 20.5823L36.1057 22.4012C36.2997 22.4899 36.3669 22.5762 36.4011 22.6526L38.2267 21.8358ZM36.9374 20.5823C36.3575 20.3172 35.7752 20.2539 35.3278 20.2122L35.1422 22.2036C35.5807 22.2444 35.8616 22.2896 36.1057 22.4012L36.9374 20.5823ZM35.3278 20.2122C34.8921 20.1716 34.3775 20.1924 34.0894 20.1883L34.0608 22.1881C34.5456 22.195 34.8028 22.172 35.1422 22.2036L35.3278 20.2122ZM34.0894 20.1883C34.0089 20.1871 33.9388 20.1923 33.8875 20.1974C33.8404 20.202 33.7904 20.2086 33.7711 20.211C33.7093 20.2187 33.7379 20.212 33.7868 20.2157L33.6385 22.2102C33.8097 22.2229 33.9597 22.203 34.0187 22.1956C34.0598 22.1905 34.07 22.1891 34.083 22.1878C34.0918 22.1869 34.0815 22.1884 34.0608 22.1881L34.0894 20.1883ZM33.7869 20.2157C33.6377 20.2046 33.2487 20.2092 32.9374 20.5414C32.6459 20.8525 32.651 21.2142 32.6573 21.3269L34.6542 21.2151C34.6582 21.2863 34.6701 21.6173 34.3969 21.9089C34.1038 22.2217 33.7444 22.218 33.6385 22.2102L33.7869 20.2157ZM32.6573 21.3269C32.6568 21.3182 32.6567 21.3121 32.6567 21.3096C32.6567 21.3073 32.6567 21.3072 32.6567 21.3112C32.6566 21.3164 32.6565 21.32 32.6564 21.3315C32.6562 21.3408 32.6561 21.3549 32.6561 21.3705L34.6561 21.3707C34.6561 21.3575 34.6562 21.3686 34.6566 21.3304C34.6568 21.3063 34.657 21.2642 34.6542 21.2151L32.6573 21.3269ZM32.6561 21.3705C32.6558 23.0828 32.6556 24.7945 32.6533 26.5191L34.6533 26.5216C34.6556 24.7958 34.6558 23.0829 34.6561 21.3708L32.6561 21.3705ZM32.8462 25.93C32.8988 25.8581 32.9648 25.7926 33.0422 25.7385C33.1181 25.6854 33.1897 25.6539 33.2434 25.6351C33.2936 25.6176 33.3314 25.6104 33.336 25.6095C33.3382 25.609 33.3394 25.6088 33.3296 25.6106C33.3228 25.6118 33.3057 25.6148 33.2868 25.6186L33.6791 27.5798C33.675 27.5806 33.6729 27.5809 33.6813 27.5794C33.6865 27.5785 33.7028 27.5756 33.7201 27.5722C33.755 27.5654 33.8229 27.5512 33.9024 27.5234C34.0857 27.4595 34.296 27.3356 34.4605 27.1107L32.8462 25.93ZM33.2868 25.6186C31.7948 25.9171 30.3057 26.2163 28.8153 26.5121L29.2046 28.4738C30.697 28.1776 32.1893 27.8778 33.6791 27.5798L33.2868 25.6186ZM28.8154 26.5121C28.8016 26.5148 28.788 26.5176 28.782 26.5189C28.7783 26.5197 28.7759 26.5201 28.7741 26.5205C28.7723 26.5209 28.7717 26.521 28.7718 26.521C28.7719 26.5209 28.7766 26.52 28.7841 26.5189C28.7918 26.5177 28.8035 26.5161 28.8182 26.5147C28.8846 26.5085 28.9872 26.5096 29.1026 26.5459L28.5025 28.4537C28.6959 28.5146 28.8698 28.5186 29.0042 28.506C29.0666 28.5002 29.1185 28.491 29.1506 28.4848C29.1666 28.4817 29.1811 28.4787 29.1893 28.477C29.1996 28.4748 29.2022 28.4743 29.2046 28.4738L28.8154 26.5121ZM29.8024 27.4826C29.7892 26.7137 29.7702 25.9959 29.7938 25.2788L27.7949 25.2131C27.7692 25.9936 27.79 26.7763 27.8027 27.517L29.8024 27.4826ZM29.7938 25.2788C29.8041 24.9656 29.8131 24.6417 29.8136 24.3149L27.8136 24.3121C27.8131 24.6065 27.805 24.9048 27.7949 25.2131L29.7938 25.2788ZM29.8136 24.3149C29.817 21.8654 29.8172 19.4155 29.8113 16.9653L27.8113 16.9701C27.8172 19.4171 27.817 21.8644 27.8136 24.3121L29.8136 24.3149ZM29.8113 16.9653C29.8113 16.9701 29.8113 16.9881 29.8086 17.0151C29.806 17.0416 29.8 17.0869 29.7844 17.1434C29.7506 17.2665 29.6703 17.4438 29.4952 17.5916C29.3329 17.7286 29.1705 17.7703 29.1041 17.7838C29.0434 17.7961 29.0028 17.7959 29.0316 17.7947L28.9479 15.7964C28.9098 15.798 28.8134 15.802 28.7066 15.8236C28.5941 15.8465 28.3954 15.9027 28.2052 16.0632C27.7994 16.4057 27.8111 16.8847 27.8113 16.9701L29.8113 16.9653ZM29.0316 17.7947C30.287 17.7421 31.549 17.7583 32.8384 17.7791L32.8707 15.7794C31.5849 15.7587 30.2688 15.7411 28.9479 15.7964L29.0316 17.7947ZM32.8384 17.7791C33.8134 17.7949 34.6253 17.7692 35.5269 17.8046L35.6053 15.8061C34.7009 15.7706 33.7039 15.7929 32.8707 15.7794L32.8384 17.7791ZM35.5269 17.8046C35.9139 17.8197 36.3045 17.8528 36.6963 17.9011L36.9412 15.9162C36.4993 15.8617 36.053 15.8237 35.6053 15.8061L35.5269 17.8046ZM36.6963 17.9011C37.3187 17.9779 37.8897 18.0901 38.4226 18.2821L39.1005 16.4005C38.376 16.1395 37.6445 16.003 36.9412 15.9162L36.6963 17.9011ZM38.4226 18.2821C38.9288 18.4645 39.3787 18.7122 39.7749 19.0413L41.0528 17.5028C40.4577 17.0085 39.7989 16.6522 39.1005 16.4005L38.4226 18.2821ZM39.7749 19.0413C40.3214 19.4953 40.7283 20.0687 41.0337 20.757L42.8618 19.9459C42.4531 19.0245 41.874 18.1849 41.0528 17.5028L39.7749 19.0413ZM41.0337 20.757C41.1864 21.1012 41.2832 21.4565 41.3225 21.8287L43.3114 21.6191C43.2496 21.0321 43.0963 20.4743 42.8618 19.9459L41.0337 20.757ZM41.3225 21.8287C41.3542 22.1302 41.3559 22.4417 41.3352 22.7626L43.331 22.8912C43.3574 22.4823 43.3574 22.0552 43.3114 21.6191L41.3225 21.8287ZM41.3352 22.7626C41.3049 23.2324 41.193 23.7155 41.0387 24.2489L42.9599 24.8048C43.1279 24.2242 43.2868 23.5774 43.331 22.8912L41.3352 22.7626ZM41.0387 24.2489C41.0036 24.37 41.0018 24.3839 40.9874 24.4227L42.8629 25.1173C42.9111 24.9872 42.9492 24.8415 42.9599 24.8048L41.0387 24.2489ZM41.5263 23.853C41.4102 23.9035 41.3629 23.8936 40.9901 23.9731L41.4071 25.9291C41.5148 25.9062 41.9623 25.8444 42.324 25.687L41.5263 23.853ZM40.9901 23.9731C38.9128 24.416 36.8354 24.8575 34.7573 25.2997L35.1736 27.2559C37.2509 26.8138 39.3293 26.3721 41.4071 25.9291L40.9901 23.9731ZM34.7573 25.2997C34.6966 25.3127 34.6359 25.3278 34.6012 25.3363C34.5596 25.3464 34.5378 25.3514 34.521 25.3546C34.4911 25.3603 34.5166 25.3522 34.5659 25.3584L34.3126 27.3423C34.5504 27.3727 34.754 27.3463 34.8976 27.3188C34.9675 27.3054 35.0314 27.29 35.0749 27.2794C35.1253 27.2671 35.1493 27.2611 35.1736 27.2559L34.7573 25.2997Z" fill="white" mask="url(#path-1-inside-1_61_9)"/>
<path d="M10.7993 18.0063L10.7993 18.0063C10.6404 17.9976 10.5004 17.955 10.3664 17.8708L10.3664 17.8708C10.3374 17.8526 10.3127 17.8219 10.2997 17.7703C10.2855 17.714 10.2914 17.6529 10.3098 17.609L10.3098 17.609C10.3571 17.4957 10.3814 17.4476 10.4089 17.413L10.4089 17.413C10.4343 17.3809 10.4558 17.3673 10.4863 17.3561C10.5281 17.3407 10.593 17.3283 10.7117 17.3212C11.8603 17.2525 13.0047 17.2623 14.1687 17.2723C14.5317 17.2754 14.8967 17.2785 15.2642 17.2793C15.7192 17.2802 16.1122 17.2821 16.4867 17.3701C16.5303 17.3804 16.5541 17.3974 16.5749 17.4207C16.6008 17.4498 16.6313 17.5008 16.6582 17.5848C16.6987 17.7108 16.6787 17.8223 16.5507 17.9486C16.5325 17.9666 16.4869 17.9956 16.3698 18.0031L16.3698 18.0031C16.3174 18.0065 16.2694 18.0127 16.2306 18.0182C16.2131 18.0207 16.1956 18.0233 16.1806 18.0256L16.1761 18.0262C16.1593 18.0288 16.1451 18.0309 16.1315 18.0328C16.0746 18.0407 16.0567 18.0398 16.0512 18.0392L16.0512 18.0392C15.9951 18.0331 15.7825 18.013 15.6007 18.1732C15.41 18.3413 15.409 18.5615 15.4181 18.6572L15.418 18.6609L15.4178 18.6665L15.4176 18.6734C15.4173 18.6828 15.4169 18.6972 15.4169 18.7132V18.7132V18.7309C15.4168 22.439 15.4166 26.1469 15.4145 29.8672C15.3365 29.8884 15.2505 29.9026 15.1362 29.9216C15.1038 29.927 15.0691 29.9328 15.0317 29.9392C14.4336 30.0415 13.8327 30.1783 13.2478 30.3115C12.98 30.3725 12.7155 30.4327 12.4561 30.4885C12.3641 30.5083 12.2743 30.5281 12.1862 30.5476C11.9763 30.5939 11.7757 30.6382 11.5765 30.6752C11.5763 27.0192 11.5763 23.3631 11.5763 19.707L11.5763 18.8226C11.5763 18.8181 11.5763 18.8134 11.5763 18.8087C11.5764 18.7451 11.5765 18.6617 11.5684 18.5899C11.56 18.5144 11.5339 18.3454 11.3942 18.2037C11.2572 18.0647 11.0916 18.0347 11.022 18.0243C10.9578 18.0147 10.8809 18.0106 10.8218 18.0075C10.814 18.0071 10.8065 18.0067 10.7993 18.0063ZM10.0174 17.1026L10.0171 17.1023L10.0174 17.1026Z" fill="white" stroke="white"/>
<path d="M24.4565 17.2687L24.4565 17.2687C24.5382 17.2743 24.618 17.2794 24.6964 17.2843C25.1419 17.3128 25.5373 17.338 25.9237 17.4306L25.9237 20.7911C25.8402 20.7791 25.7681 20.7669 25.7006 20.7507L25.5854 21.2331L25.7006 20.7507C25.4815 20.6984 25.2621 20.6984 25.1134 20.6983C25.0996 20.6983 25.0864 20.6983 25.074 20.6983C24.5736 20.6965 24.0443 20.812 23.5877 21.1915C23.2829 21.4449 23.0072 21.7867 22.9305 22.271L23.4244 22.3492L22.9305 22.271C22.8833 22.5694 22.8862 22.8821 22.9695 23.1989C23.1687 23.9565 23.596 24.58 23.9694 25.1249C23.978 25.1375 23.9866 25.1499 23.9951 25.1624C24.0737 25.2772 24.1466 25.3973 24.228 25.5314C24.2342 25.5416 24.2404 25.5519 24.2467 25.5622C24.3329 25.7041 24.4289 25.8609 24.5378 26.0132L24.9445 25.7224L24.5378 26.0132C24.8633 26.4684 25.1543 26.9189 25.3801 27.3979C25.4299 27.5037 25.4747 27.6105 25.5197 27.7232C25.4108 27.746 25.3021 27.769 25.1939 27.7919L25.1936 27.792C25.0104 27.8307 24.8283 27.8692 24.6463 27.9069C23.6976 28.1034 22.7492 28.3009 21.801 28.499C21.618 28.0122 21.3644 27.5744 21.0976 27.1705C20.9321 26.9198 20.762 26.6729 20.5952 26.4306L20.5749 26.4012C20.4006 26.148 20.2298 25.8995 20.0651 25.6483C19.652 25.0187 19.3241 24.3547 19.1114 23.6483C18.9922 23.2527 18.922 22.8396 18.8854 22.4079L18.3872 22.4501L18.8854 22.4079C18.8243 21.6883 18.9377 21.0003 19.2096 20.3349C19.3689 19.945 19.5915 19.5826 19.872 19.2545L19.492 18.9296L19.872 19.2545C20.234 18.8312 20.6359 18.4722 21.0956 18.1907C21.4384 17.9808 21.7992 17.806 22.1761 17.6698C22.5716 17.5269 22.9809 17.4229 23.4006 17.3524C23.5809 17.3221 23.7659 17.3057 23.9493 17.3033C24.0536 17.302 24.1582 17.2904 24.234 17.282C24.2465 17.2806 24.2583 17.2793 24.2692 17.2782C24.3572 17.2688 24.411 17.2656 24.4565 17.2687Z" fill="white" stroke="white"/>
<path d="M40.8495 25.495C40.4903 25.5715 40.1311 25.6481 39.7719 25.7246C38.6004 25.9743 37.4288 26.2241 36.2573 26.4731L36.2573 26.4731C36.1154 26.5033 35.9741 26.5331 35.8334 26.5627C35.5296 26.6267 35.228 26.6902 34.9263 26.7566C34.9253 27.204 34.925 27.6472 34.9251 28.0896C35.3393 28.099 35.8032 28.1114 36.2661 28.2116L36.2661 28.2116C36.8995 28.3487 37.4033 28.6962 37.736 29.2752C38.0101 29.7522 38.0645 30.2682 38.1059 30.6699C38.1584 31.1778 38.1798 31.6856 38.1966 32.1791C38.2156 32.7414 38.1837 33.2979 38.1203 33.856C38.1503 33.9848 38.1557 34.1018 38.156 34.195C38.156 34.2048 38.156 34.214 38.156 34.2228C38.3676 34.223 38.5751 34.2321 38.7706 34.2406L38.7817 34.2411L40.8495 25.495ZM40.8495 25.495C40.6329 25.7648 40.389 26.0117 40.1141 26.2335L39.737 26.5379L40.0294 26.9243C40.1293 27.0564 40.2423 27.1452 40.3294 27.2068C40.3857 27.2466 40.4169 27.2668 40.4408 27.2823C40.4663 27.2989 40.4836 27.3101 40.5147 27.3342L40.8056 26.9598L40.5147 27.3342C40.8004 27.5563 41.0274 27.8514 41.2687 28.2058L41.2687 28.2059C41.4551 28.4796 41.6072 28.7665 41.717 29.0699C41.7175 29.0718 41.7188 29.0785 41.7202 29.093C41.7214 29.1052 41.7223 29.1205 41.7232 29.1428L41.7246 29.179L41.7263 29.2225L41.7272 29.246L41.7304 29.2694C41.8324 30.0159 41.8758 30.7591 41.9147 31.5341C41.9161 31.5813 41.917 31.6261 41.9179 31.6732L41.918 31.677C41.919 31.7267 41.92 31.7788 41.9217 31.8346L41.9217 31.8366C41.927 31.9939 41.9289 32.1706 41.9308 32.3532C41.9336 32.622 41.9365 32.9036 41.9508 33.1549C41.9665 33.4303 41.967 33.6952 41.9675 33.9752C41.9676 34.0569 41.9678 34.1398 41.9683 34.2247C41.4971 34.2614 41.0203 34.2582 40.5186 34.2548C40.4696 34.2545 40.4203 34.2542 40.3708 34.2539C40.3215 34.2536 40.2714 34.2532 40.2208 34.2528C39.9966 34.251 39.7615 34.2491 39.5277 34.2559L40.8495 25.495Z" fill="white" stroke="white"/>
<mask id="path-6-inside-2_61_9" fill="white">
<path d="M28.7895 27.5057C30.3755 27.1786 31.9595 26.8624 33.5436 26.5465C33.5714 26.5409 33.5998 26.5388 33.6396 26.5342C33.6529 26.5807 33.6558 26.628 33.6558 26.6753C33.6561 29.2462 33.6547 31.8171 33.6582 34.388C33.6586 34.6261 33.5429 34.7442 33.3058 34.7426C31.8734 34.7334 30.4409 34.7348 29.0084 34.7429C28.8611 34.7437 28.8136 34.6838 28.8186 34.5678C28.827 34.3736 28.7846 34.1843 28.7851 33.9908C28.7887 32.601 28.7688 31.2109 28.7949 29.8216C28.8075 29.15 28.8003 28.4785 28.8178 27.8073C28.8204 27.7072 28.7826 27.6148 28.7895 27.5057Z"/>
</mask>
<path d="M28.7895 27.5057C30.3755 27.1786 31.9595 26.8624 33.5436 26.5465C33.5714 26.5409 33.5998 26.5388 33.6396 26.5342C33.6529 26.5807 33.6558 26.628 33.6558 26.6753C33.6561 29.2462 33.6547 31.8171 33.6582 34.388C33.6586 34.6261 33.5429 34.7442 33.3058 34.7426C31.8734 34.7334 30.4409 34.7348 29.0084 34.7429C28.8611 34.7437 28.8136 34.6838 28.8186 34.5678C28.827 34.3736 28.7846 34.1843 28.7851 33.9908C28.7887 32.601 28.7688 31.2109 28.7949 29.8216C28.8075 29.15 28.8003 28.4785 28.8178 27.8073C28.8204 27.7072 28.7826 27.6148 28.7895 27.5057Z" fill="white"/>
<path d="M28.7895 27.5057L28.5875 26.5263L27.8393 26.6806L27.7915 27.4431L28.7895 27.5057ZM33.5436 26.5465L33.3481 25.5658L33.348 25.5658L33.5436 26.5465ZM33.6396 26.5342L34.6011 26.2595L34.3681 25.444L33.5255 25.5407L33.6396 26.5342ZM33.6558 26.6753L32.6558 26.6754V26.6754L33.6558 26.6753ZM33.6582 34.388L34.6582 34.3866V34.3866L33.6582 34.388ZM33.3058 34.7426L33.3122 33.7427H33.3122L33.3058 34.7426ZM29.0084 34.7429L29.0028 33.7429H29.0028L29.0084 34.7429ZM28.8186 34.5678L29.8176 34.6111L29.8176 34.6111L28.8186 34.5678ZM28.7851 33.9908L29.7851 33.9934V33.9934L28.7851 33.9908ZM28.7949 29.8216L29.7947 29.8403V29.8403L28.7949 29.8216ZM28.8178 27.8073L27.8181 27.7813L27.8181 27.7813L28.8178 27.8073ZM28.9915 28.485C30.5739 28.1587 32.1548 27.8431 33.7392 27.5272L33.348 25.5658C31.7643 25.8816 30.1772 26.1984 28.5875 26.5263L28.9915 28.485ZM33.7391 27.5272C33.7262 27.5297 33.716 27.5314 33.7097 27.5323C33.7037 27.5332 33.7006 27.5335 33.7026 27.5333C33.7034 27.5332 33.705 27.533 33.7078 27.5327C33.7107 27.5324 33.7138 27.532 33.7184 27.5315C33.7269 27.5306 33.7396 27.5293 33.7537 27.5277L33.5255 25.5407C33.5197 25.5414 33.5139 25.542 33.505 25.543C33.4974 25.5438 33.4846 25.5451 33.4716 25.5467C33.4453 25.5497 33.4007 25.5553 33.3481 25.5658L33.7391 27.5272ZM32.6781 26.8089C32.6537 26.7237 32.6558 26.6631 32.6558 26.6754L34.6558 26.6752C34.6558 26.5929 34.6521 26.4377 34.6011 26.2595L32.6781 26.8089ZM32.6558 26.6754C32.6561 29.2455 32.6547 31.8176 32.6582 34.3893L34.6582 34.3866C34.6547 31.8166 34.6561 29.2469 34.6558 26.6752L32.6558 26.6754ZM32.6582 34.3893C32.6582 34.3618 32.6644 34.1496 32.8605 33.9515C33.0594 33.7507 33.2768 33.7424 33.3122 33.7427L33.2994 35.7426C33.5719 35.7444 33.9657 35.6778 34.2816 35.3588C34.5947 35.0426 34.6586 34.6523 34.6582 34.3866L32.6582 34.3893ZM33.3122 33.7427C31.8749 33.7334 30.4383 33.7348 29.0028 33.7429L29.014 35.7429C30.4434 35.7348 31.8718 35.7334 33.2994 35.7426L33.3122 33.7427ZM29.0028 33.7429C29.0263 33.7428 29.308 33.7391 29.5599 33.9885C29.8256 34.2516 29.82 34.5565 29.8176 34.6111L27.8195 34.5246C27.8121 34.6952 27.8278 35.088 28.1529 35.4099C28.4641 35.718 28.8432 35.7439 29.0141 35.7429L29.0028 33.7429ZM29.8176 34.6111C29.8253 34.435 29.8093 34.2749 29.7999 34.1805C29.7886 34.0659 29.785 34.028 29.7851 33.9934L27.7851 33.9882C27.7847 34.1472 27.802 34.3007 27.8097 34.3776C27.8193 34.4749 27.8203 34.5065 27.8195 34.5246L29.8176 34.6111ZM29.7851 33.9934C29.7887 32.5795 29.7688 31.2204 29.7947 29.8403L27.795 29.8028C27.7688 31.2013 27.7886 32.6225 27.7851 33.9882L29.7851 33.9934ZM29.7947 29.8403C29.8086 29.0992 29.7993 28.5301 29.8175 27.8333L27.8181 27.7813C27.8013 28.427 27.8063 29.2008 27.795 29.8028L29.7947 29.8403ZM29.8175 27.8333C29.8198 27.7421 29.8127 27.6644 29.8057 27.6088C29.7994 27.5585 29.7906 27.5082 29.7883 27.4946C29.7801 27.4455 29.792 27.4965 29.7875 27.5682L27.7915 27.4431C27.7801 27.624 27.8075 27.7758 27.8158 27.8252C27.8218 27.8608 27.8215 27.8592 27.8213 27.8578C27.8204 27.8511 27.8171 27.8224 27.8181 27.7813L29.8175 27.8333Z" fill="white" mask="url(#path-6-inside-2_61_9)"/>
<mask id="path-8-inside-3_61_9" fill="white">
<path d="M21.4434 29.054C22.9052 28.7383 24.3651 28.435 25.8244 28.1293C25.9421 28.1046 26.0695 28.0839 26.1264 27.9401C26.261 28.3323 26.3528 28.7326 26.3736 29.1521C26.3845 29.3724 26.3978 29.5928 26.3932 29.8127C26.3835 30.2809 26.3308 30.7435 26.1767 31.1903C26.1427 31.289 26.1316 31.3956 26.1078 31.5104C25.9331 31.8691 25.7285 32.1971 25.5204 32.5232C25.4827 32.5823 25.4181 32.6051 25.3598 32.6539C25.2931 32.7168 25.2251 32.7605 25.1594 32.8071C24.9894 32.9278 24.9823 32.9306 24.8174 32.7935C24.6736 32.6738 24.5137 32.578 24.3448 32.5055C23.9241 32.3247 23.5348 32.0905 23.1522 31.8427C23.0042 31.7468 22.8565 31.6512 22.6664 31.6712C22.5758 31.6807 22.4873 31.6949 22.407 31.7395C21.8224 32.0644 21.2365 32.387 20.6567 32.7205C20.5046 32.808 20.3587 32.9057 20.2081 32.9957C20.0527 33.0887 20.0262 33.2615 19.9969 33.4272C19.9357 33.7728 20.0228 34.1177 19.9968 34.4628C19.9916 34.5323 20.011 34.6067 19.9458 34.6722C19.7992 34.7053 19.6637 34.7077 19.5172 34.6633C18.9521 34.6304 18.4218 34.4879 17.8908 34.3447C17.7953 34.3189 17.7656 34.2839 17.7658 34.1876C17.7686 32.8546 17.7683 31.5216 17.7664 30.1886C17.7663 30.0855 17.7745 30.0633 17.8985 30.0851C18.2715 30.1506 18.6217 30.3043 18.9926 30.3641C19.7688 30.4892 20.5099 30.425 21.1103 29.8391C21.285 29.6687 21.3757 29.4436 21.4127 29.2001C21.4196 29.155 21.4316 29.1106 21.4434 29.054Z"/>
</mask>
<path d="M21.4434 29.054C22.9052 28.7383 24.3651 28.435 25.8244 28.1293C25.9421 28.1046 26.0695 28.0839 26.1264 27.9401C26.261 28.3323 26.3528 28.7326 26.3736 29.1521C26.3845 29.3724 26.3978 29.5928 26.3932 29.8127C26.3835 30.2809 26.3308 30.7435 26.1767 31.1903C26.1427 31.289 26.1316 31.3956 26.1078 31.5104C25.9331 31.8691 25.7285 32.1971 25.5204 32.5232C25.4827 32.5823 25.4181 32.6051 25.3598 32.6539C25.2931 32.7168 25.2251 32.7605 25.1594 32.8071C24.9894 32.9278 24.9823 32.9306 24.8174 32.7935C24.6736 32.6738 24.5137 32.578 24.3448 32.5055C23.9241 32.3247 23.5348 32.0905 23.1522 31.8427C23.0042 31.7468 22.8565 31.6512 22.6664 31.6712C22.5758 31.6807 22.4873 31.6949 22.407 31.7395C21.8224 32.0644 21.2365 32.387 20.6567 32.7205C20.5046 32.808 20.3587 32.9057 20.2081 32.9957C20.0527 33.0887 20.0262 33.2615 19.9969 33.4272C19.9357 33.7728 20.0228 34.1177 19.9968 34.4628C19.9916 34.5323 20.011 34.6067 19.9458 34.6722C19.7992 34.7053 19.6637 34.7077 19.5172 34.6633C18.9521 34.6304 18.4218 34.4879 17.8908 34.3447C17.7953 34.3189 17.7656 34.2839 17.7658 34.1876C17.7686 32.8546 17.7683 31.5216 17.7664 30.1886C17.7663 30.0855 17.7745 30.0633 17.8985 30.0851C18.2715 30.1506 18.6217 30.3043 18.9926 30.3641C19.7688 30.4892 20.5099 30.425 21.1103 29.8391C21.285 29.6687 21.3757 29.4436 21.4127 29.2001C21.4196 29.155 21.4316 29.1106 21.4434 29.054Z" fill="white"/>
<path d="M21.4434 29.054L21.2323 28.0766L20.5969 28.2138L20.4644 28.8502L21.4434 29.054ZM25.8244 28.1293L26.0295 29.108L26.0295 29.108L25.8244 28.1293ZM26.1264 27.9401L27.0722 27.6154L26.1926 25.0525L25.1964 27.5724L26.1264 27.9401ZM26.3736 29.1521L25.3748 29.2017V29.2017L26.3736 29.1521ZM26.3932 29.8127L25.3934 29.7919L25.3934 29.7919L26.3932 29.8127ZM26.1767 31.1903L25.2314 30.8643L26.1767 31.1903ZM26.1078 31.5104L27.0068 31.9483L27.0616 31.8358L27.087 31.7132L26.1078 31.5104ZM25.5204 32.5232L24.6774 31.9854L24.6773 31.9854L25.5204 32.5232ZM25.3598 32.6539L24.7182 31.8869L24.6955 31.9059L24.6739 31.9262L25.3598 32.6539ZM25.1594 32.8071L24.5805 31.9917L24.5805 31.9917L25.1594 32.8071ZM24.8174 32.7935L24.1779 33.5623L24.1779 33.5623L24.8174 32.7935ZM24.3448 32.5055L24.7396 31.5867L24.7396 31.5867L24.3448 32.5055ZM23.1522 31.8427L23.696 31.0034L23.6959 31.0034L23.1522 31.8427ZM22.6664 31.6712L22.5618 30.6766L22.5618 30.6766L22.6664 31.6712ZM22.407 31.7395L22.8927 32.6136L22.8927 32.6136L22.407 31.7395ZM20.6567 32.7205L20.1581 31.8537L20.1581 31.8537L20.6567 32.7205ZM20.2081 32.9957L19.6949 32.1374L19.6949 32.1374L20.2081 32.9957ZM19.9969 33.4272L20.9816 33.6016L20.9816 33.6016L19.9969 33.4272ZM19.9968 34.4628L20.994 34.5379L20.994 34.5379L19.9968 34.4628ZM19.9458 34.6722L20.1662 35.6476L20.4492 35.5837L20.6539 35.3782L19.9458 34.6722ZM19.5172 34.6633L19.8074 33.7064L19.6939 33.6719L19.5755 33.665L19.5172 34.6633ZM17.8908 34.3447L17.6302 35.3101L17.6303 35.3102L17.8908 34.3447ZM17.7658 34.1876L16.7658 34.1855V34.1855L17.7658 34.1876ZM17.7664 30.1886L16.7664 30.19V30.19L17.7664 30.1886ZM17.8985 30.0851L18.0715 29.1001L18.0715 29.1001L17.8985 30.0851ZM18.9926 30.3641L19.1518 29.3769L19.1518 29.3769L18.9926 30.3641ZM21.1103 29.8391L20.412 29.1233L20.412 29.1233L21.1103 29.8391ZM21.4127 29.2001L22.4014 29.3504L22.4014 29.3504L21.4127 29.2001ZM21.6545 30.0315C23.1124 29.7166 24.5679 29.4143 26.0295 29.108L25.6194 27.1505C24.1623 27.4558 22.6981 27.76 21.2323 28.0766L21.6545 30.0315ZM26.0295 29.108C26.0331 29.1073 26.7716 29.0281 27.0564 28.3077L25.1964 27.5724C25.2277 27.4934 25.2784 27.4089 25.3524 27.3322C25.4251 27.2569 25.5005 27.2096 25.5589 27.181C25.6136 27.1543 25.6543 27.1436 25.6611 27.1419C25.6619 27.1416 25.6655 27.1409 25.6194 27.1505L26.0295 29.108ZM25.1805 28.2647C25.2926 28.5913 25.3597 28.8975 25.3748 29.2017L27.3724 29.1025C27.3458 28.5677 27.2294 28.0733 27.0722 27.6154L25.1805 28.2647ZM25.3748 29.2017C25.3866 29.4389 25.3971 29.616 25.3934 29.7919L27.393 29.8335C27.3985 29.5695 27.3825 29.3059 27.3724 29.1025L25.3748 29.2017ZM25.3934 29.7919C25.3849 30.2025 25.3392 30.5516 25.2314 30.8643L27.1221 31.5163C27.3224 30.9353 27.3821 30.3594 27.393 29.8335L25.3934 29.7919ZM25.2314 30.8643C25.1903 30.9833 25.1684 31.0914 25.1556 31.16C25.1373 31.2572 25.1393 31.2561 25.1286 31.3075L27.087 31.7132C27.0959 31.6703 27.103 31.6309 27.1084 31.6007C27.1146 31.5661 27.1175 31.549 27.1213 31.5286C27.1284 31.4905 27.1291 31.496 27.1221 31.5163L25.2314 30.8643ZM25.2088 31.0724C25.0615 31.3747 24.8846 31.6605 24.6774 31.9854L26.3635 33.0611C26.5723 32.7337 26.8046 32.3634 27.0068 31.9483L25.2088 31.0724ZM24.6773 31.9854C24.7689 31.8418 24.8787 31.7702 24.8847 31.7661C24.8869 31.7646 24.8872 31.7644 24.8801 31.769C24.8754 31.7721 24.8619 31.7809 24.8486 31.7898C24.8203 31.8087 24.7721 31.8418 24.7182 31.8869L26.0014 33.421C25.9767 33.4416 25.9584 33.4536 25.9598 33.4527C25.9613 33.4517 25.9626 33.4508 25.9725 33.4444C25.98 33.4395 25.9947 33.4299 26.011 33.4188C26.0733 33.3763 26.2342 33.2637 26.3635 33.061L24.6773 31.9854ZM24.6739 31.9262C24.6801 31.9204 24.681 31.9205 24.6677 31.9303C24.6604 31.9356 24.6513 31.9421 24.6363 31.9526C24.6241 31.9611 24.601 31.9772 24.5805 31.9917L25.7382 33.6226C25.7606 33.6067 25.9134 33.5063 26.0457 33.3816L24.6739 31.9262ZM24.5805 31.9917C24.522 32.0333 24.5399 32.0188 24.5716 32.0011C24.6129 31.9782 24.7786 31.89 25.0176 31.8975C25.2571 31.9049 25.4174 32.0035 25.4594 32.0307C25.4929 32.0523 25.5092 32.0682 25.4569 32.0247L24.1779 33.5623C24.208 33.5873 24.2871 33.6543 24.3736 33.7102C24.4685 33.7716 24.6722 33.8877 24.9553 33.8965C25.238 33.9053 25.4476 33.8024 25.5432 33.7492C25.6292 33.7015 25.7118 33.6413 25.7382 33.6226L24.5805 31.9917ZM25.4569 32.0247C25.2346 31.8398 24.9913 31.6948 24.7396 31.5867L23.95 33.4242C24.0361 33.4612 24.1125 33.5078 24.1779 33.5623L25.4569 32.0247ZM24.7396 31.5867C24.3973 31.4396 24.064 31.2419 23.696 31.0034L22.6085 32.6819C23.0055 32.9391 23.451 33.2098 23.95 33.4242L24.7396 31.5867ZM23.6959 31.0034C23.5948 30.9379 23.1557 30.6142 22.5618 30.6766L22.7711 32.6657C22.7205 32.671 22.6709 32.6685 22.6261 32.6605C22.5829 32.6528 22.552 32.6414 22.5366 32.6349C22.5224 32.6289 22.5196 32.6263 22.5336 32.6345C22.5495 32.6439 22.5684 32.6559 22.6085 32.6819L23.6959 31.0034ZM22.5618 30.6766C22.4539 30.688 22.1905 30.7158 21.9213 30.8654L22.8927 32.6136C22.8346 32.6459 22.7865 32.6598 22.7637 32.6652C22.7446 32.6697 22.7394 32.669 22.7711 32.6657L22.5618 30.6766ZM21.9213 30.8654C21.3413 31.1877 20.7462 31.5154 20.1581 31.8537L21.1553 33.5874C21.7268 33.2586 22.3035 32.9411 22.8927 32.6136L21.9213 30.8654ZM20.1581 31.8537C20.0271 31.9291 19.7568 32.1004 19.6949 32.1374L20.7213 33.854C20.9606 33.7109 20.9822 33.687 21.1553 33.5874L20.1581 31.8537ZM19.6949 32.1374C19.077 32.5069 19.0195 33.2115 19.0122 33.2529L20.9816 33.6016C20.9906 33.5503 20.9935 33.5337 20.9969 33.5183C20.9996 33.5063 20.9971 33.5215 20.9858 33.5501C20.9738 33.5806 20.9491 33.6337 20.9028 33.6932C20.8544 33.7554 20.7927 33.8113 20.7213 33.854L19.6949 32.1374ZM19.0122 33.2529C18.959 33.5534 18.9744 33.8303 18.9856 34.0081C18.9989 34.2193 19.006 34.3026 18.9996 34.3878L20.994 34.5379C21.0135 34.278 20.9901 34.0162 20.9816 33.8823C20.9711 33.715 20.9736 33.6467 20.9816 33.6016L19.0122 33.2529ZM18.9996 34.3878C18.9946 34.4541 18.9958 34.5189 18.9958 34.5197C18.9959 34.538 18.9949 34.504 18.9999 34.4586C19.0057 34.4063 19.0206 34.3225 19.062 34.2262C19.105 34.1264 19.1658 34.0382 19.2376 33.9662L20.6539 35.3782C20.7584 35.2735 20.8412 35.1514 20.899 35.0171C20.9554 34.8862 20.9779 34.7672 20.9877 34.6795C20.9967 34.5985 20.9959 34.5289 20.9958 34.5116C20.9956 34.4769 20.9963 34.5063 20.994 34.5379L18.9996 34.3878ZM19.7253 33.6968C19.7119 33.6998 19.7205 33.6967 19.743 33.6969C19.754 33.697 19.766 33.698 19.7782 33.6999C19.7904 33.7017 19.8004 33.7042 19.8074 33.7064L19.2271 35.6203C19.5702 35.7243 19.8853 35.7111 20.1662 35.6476L19.7253 33.6968ZM19.5755 33.665C19.1292 33.639 18.696 33.5262 18.1513 33.3792L17.6303 35.3102C18.1476 35.4497 18.7751 35.6218 19.459 35.6616L19.5755 33.665ZM18.1514 33.3792C18.1526 33.3795 18.384 33.4327 18.5713 33.6655C18.7692 33.9112 18.7659 34.1634 18.7658 34.1897L16.7658 34.1855C16.7656 34.3081 16.777 34.6259 17.0135 34.9197C17.2395 35.2004 17.5335 35.284 17.6302 35.3101L18.1514 33.3792ZM18.7658 34.1897C18.7686 32.8552 18.7683 31.521 18.7664 30.1872L16.7664 30.19C16.7683 31.5222 16.7686 32.854 16.7658 34.1855L18.7658 34.1897ZM18.7664 30.1872C18.7664 30.1544 18.7688 30.2125 18.7561 30.2893C18.7429 30.369 18.6905 30.6221 18.4533 30.8347C18.2136 31.0495 17.9529 31.0737 17.8602 31.0769C17.7694 31.0801 17.7082 31.0669 17.7255 31.07L18.0715 29.1001C18.0268 29.0923 17.9181 29.0737 17.7909 29.0781C17.6618 29.0826 17.3758 29.1147 17.1185 29.3453C16.8638 29.5736 16.8016 29.8502 16.783 29.9624C16.7649 30.0717 16.7664 30.1713 16.7664 30.19L18.7664 30.1872ZM17.7255 31.07C17.8435 31.0907 17.9663 31.1268 18.1593 31.1847C18.3322 31.2365 18.5733 31.3094 18.8335 31.3514L19.1518 29.3769C19.041 29.359 18.9215 29.3252 18.7334 29.2688C18.5653 29.2185 18.3265 29.1449 18.0715 29.1001L17.7255 31.07ZM18.8335 31.3514C19.7547 31.4999 20.8826 31.4584 21.8087 30.5548L20.412 29.1233C20.1371 29.3915 19.783 29.4786 19.1518 29.3769L18.8335 31.3514ZM21.8087 30.5548C22.1832 30.1894 22.3424 29.7387 22.4014 29.3504L20.4241 29.0499C20.4168 29.0982 20.4071 29.1236 20.403 29.1328C20.3997 29.1399 20.4017 29.1333 20.412 29.1233L21.8087 30.5548ZM22.4014 29.3504C22.3994 29.3634 22.3979 29.3686 22.402 29.3499C22.403 29.3457 22.404 29.3411 22.4054 29.3349C22.4067 29.3292 22.4084 29.3218 22.4101 29.3143C22.4136 29.2989 22.4179 29.2796 22.4224 29.2579L20.4644 28.8502C20.4605 28.8688 20.4587 28.8755 20.4504 28.9128C20.4439 28.9418 20.4329 28.9917 20.4241 29.0499L22.4014 29.3504Z" fill="white" mask="url(#path-8-inside-3_61_9)"/>
<path d="M12.5958 31.4403L12.5958 31.4403C12.5149 31.458 12.4318 31.4767 12.3468 31.4959C12.0956 31.5525 11.8284 31.6127 11.5536 31.6591C11.5547 31.8141 11.5527 31.9703 11.5507 32.12C11.5494 32.2172 11.5482 32.3117 11.5479 32.4014C11.5468 32.6997 11.5551 32.9762 11.595 33.2447C11.6541 33.643 11.8555 33.9158 12.2154 34.1211C12.4745 34.2689 12.7854 34.2767 13.2394 34.2577L13.2394 34.2577C13.351 34.2531 13.4812 34.2499 13.6051 34.2469C13.698 34.2447 13.7874 34.2425 13.8627 34.2398L12.5958 31.4403ZM12.5958 31.4403C12.8591 31.383 13.1192 31.3245 13.3774 31.2665C14.066 31.1117 14.7414 30.96 15.4267 30.8398M12.5958 31.4403L15.4267 30.8398M15.4267 30.8398C15.4323 30.9808 15.4402 31.122 15.4532 31.252L15.4532 31.252C15.4854 31.5728 15.4878 31.8978 15.4904 32.2472C15.4905 32.2611 15.4906 32.2751 15.4907 32.2891C15.4941 32.7376 15.4692 33.1287 15.3368 33.4837C15.1845 33.8921 14.9369 34.1116 14.5218 34.1959C14.3712 34.2265 14.2296 34.23 14.0407 34.2347C13.9858 34.2361 13.927 34.2376 13.8628 34.2398L15.4267 30.8398ZM13.2603 34.7573C12.8203 34.7757 12.3681 34.7838 11.9677 34.5554C11.4887 34.2822 11.1844 33.8838 11.1004 33.3181C11.0401 32.9121 11.0455 32.5057 11.0509 32.0994C11.0536 31.8933 11.0564 31.6872 11.0505 31.4811C11.0495 31.4443 11.0568 31.4074 11.0644 31.3689C11.0736 31.3222 11.0833 31.2731 11.0789 31.2193L13.2603 34.7573Z" fill="white" stroke="white"/>
<path d="M12.8976 8.02878L12.8976 8.02878C12.8018 8.25453 12.6727 8.44574 12.5094 8.60181C12.3131 8.78935 12.0809 8.91729 11.8171 8.97959L11.932 9.4662L11.8171 8.97959C11.3506 9.08977 10.9535 9.0716 10.5874 8.87393L10.3585 9.29782L10.5874 8.87393C10.1999 8.66473 9.93343 8.35534 9.76431 7.93475L9.76431 7.93474C9.75521 7.9121 9.74622 7.893 9.73951 7.87928C9.73433 7.8687 9.7286 7.85751 9.72553 7.85153C9.72502 7.85052 9.72457 7.84966 9.72422 7.84897C9.72417 7.84886 9.72411 7.84875 9.72405 7.84864C9.61848 7.48542 9.63551 7.13262 9.7592 6.78133L9.28757 6.61528L9.7592 6.78133C9.89696 6.39006 10.1341 6.1014 10.4799 5.92883L10.2567 5.48145L10.4799 5.92883C10.8331 5.75258 11.1002 5.65436 11.3837 5.67653C11.783 5.70776 12.1253 5.82795 12.4301 6.05386C12.7648 6.30193 12.9579 6.63632 13.0238 7.0535C13.0755 7.38082 13.034 7.70752 12.8976 8.02878Z" fill="white" stroke="white"/>
<path d="M15.763 9.35574L15.7636 9.35684C15.8546 9.53874 15.8963 9.72335 15.8949 9.902C15.893 10.1622 15.833 10.3806 15.7239 10.5533C15.6171 10.7222 15.4459 10.8754 15.1709 10.9834C14.9999 11.0506 14.8643 11.0843 14.7462 11.0853C14.2759 11.0892 13.9376 10.9038 13.715 10.5264L13.2843 10.7804L13.715 10.5264C13.4546 10.085 13.4476 9.66975 13.718 9.24849C13.888 8.98365 14.1574 8.82985 14.5402 8.75145C14.7855 8.7012 14.9969 8.71082 15.1948 8.79272C15.4459 8.89666 15.6218 9.07205 15.763 9.35574Z" fill="white" stroke="white"/>
<mask id="path-13-inside-4_61_9" fill="white">
<path d="M25.3331 32.6405C25.5263 32.5204 25.6043 32.323 25.7119 32.1491C25.8389 31.9438 25.9635 31.7371 26.0974 31.5266C26.1402 31.7807 26.0051 31.9856 25.8802 32.1868C25.7549 32.3886 25.6381 32.6016 25.4254 32.7355C25.3477 32.7844 25.3386 32.8788 25.3095 32.9864C25.5961 32.8497 25.8715 32.7388 26.1262 32.5918C26.4785 32.3887 26.8267 32.1791 27.188 31.9919C27.4077 31.878 27.621 31.752 27.8393 31.6354C27.8715 31.6182 27.9174 31.5752 27.9515 31.6182C27.9844 31.6597 27.9204 31.6763 27.9061 31.7078C27.8479 31.836 27.7162 31.8757 27.6093 31.9383C27.0732 32.2522 26.5235 32.5426 25.9967 32.873C25.8379 32.9725 25.668 33.0556 25.498 33.1352C25.425 33.1693 25.3942 33.2036 25.3962 33.288C25.403 33.5726 25.4177 33.8587 25.3968 34.1418C25.3477 34.8083 25.3818 35.4749 25.3717 36.1413C25.3709 36.1889 25.3568 36.2092 25.3145 36.2348C24.6109 36.6605 23.8919 37.0601 23.1919 37.4921C23.0521 37.5783 22.9021 37.6678 22.7206 37.6732C22.4828 37.6803 22.3034 37.5459 22.112 37.4428C21.7838 37.2661 21.4858 37.0349 21.1332 36.902C21.1168 36.8958 21.0905 36.8865 21.0886 36.8752C21.0548 36.6763 20.8605 36.6936 20.7376 36.6231C20.5512 36.5161 20.3538 36.4276 20.174 36.3081C20.1047 36.2619 20.0434 36.2944 19.9836 36.3228C19.5663 36.521 19.1699 36.7565 18.7726 36.9916C18.3889 37.2186 18.0206 37.4759 17.602 37.639C17.4196 37.7101 17.2293 37.6906 17.072 37.5803C16.5315 37.2014 15.9611 36.8712 15.3904 36.5423C15.2272 36.4481 15.0384 36.3959 14.8574 36.3364C14.7939 36.3155 14.7189 36.3256 14.6539 36.364C14.1739 36.648 13.6807 36.9093 13.2068 37.2041C13.0365 37.3101 12.8657 37.4247 12.6797 37.4939C12.3395 37.6204 12.241 37.8777 12.2448 38.2007C12.2539 38.9763 12.2793 39.7516 12.2777 40.5275C12.2774 40.6774 12.222 40.7629 12.1114 40.831C11.6612 41.1084 11.2195 41.3996 10.7143 41.5778C10.5949 41.62 10.5055 41.7409 10.3933 41.811C10.2193 41.9197 10.0397 42.0201 9.86332 42.1247C9.64282 42.2555 9.62888 42.4393 9.66831 42.6761C9.67277 42.7028 9.68323 42.7293 9.68182 42.7576C9.65909 43.2158 9.71737 43.6722 9.71512 44.1304C9.7142 44.3163 9.73659 44.5045 9.73904 44.6923C9.74039 44.7958 9.68777 44.7936 9.62935 44.7479C9.56046 44.6941 9.50915 44.6351 9.50549 44.5271C9.49508 44.2198 9.56372 43.9151 9.53614 43.6099C9.49977 43.2074 9.53054 42.8026 9.48206 42.4011C9.46485 42.2586 9.39726 42.1582 9.26801 42.0859C8.82195 41.8362 8.38167 41.5762 7.93627 41.3253C7.63771 41.1572 7.33529 40.9964 7.04638 40.8109C6.95557 40.7526 6.92286 40.686 6.91817 40.5853C6.87814 39.7246 6.88209 38.8632 6.8981 38.0025C6.90233 37.7751 6.81952 37.6548 6.63779 37.5566C5.99843 37.2111 5.38726 36.8163 4.74707 36.4716C4.63425 36.4109 4.51738 36.3546 4.40871 36.2853C4.39127 36.2741 4.35524 36.2806 4.35955 36.2462C4.36323 36.2167 4.38196 36.1909 4.41319 36.1909C4.46923 36.1909 4.51369 36.1453 4.58333 36.1866C4.89296 36.3704 5.21781 36.5265 5.52637 36.7142C5.96378 36.9802 6.39078 37.2653 6.8559 37.4847C6.93603 37.5224 6.98978 37.5185 7.07079 37.4806C7.60707 37.2304 8.08758 36.8875 8.59189 36.5841C8.89984 36.3988 9.21225 36.2176 9.55802 36.1071C9.6135 36.0894 9.66516 36.0918 9.72249 36.1255C10.0961 36.3447 10.4683 36.5671 10.85 36.7717C11.2287 36.9747 11.5922 37.2017 11.9568 37.4276C12.1568 37.5515 12.3459 37.4996 12.5265 37.3859C13.1756 36.9769 13.8692 36.6435 14.5088 36.2188C14.7586 36.053 15.0032 36.0998 15.2208 36.2569C15.416 36.3977 15.6318 36.4963 15.837 36.6151C16.2089 36.8304 16.5694 37.0625 16.9282 37.2984C17.0308 37.3659 17.143 37.4219 17.2566 37.4692C17.4758 37.5605 17.6665 37.4429 17.8408 37.3458C18.3395 37.0682 18.8266 36.7696 19.3183 36.4793C19.5266 36.3564 19.733 36.2301 19.9445 36.1131C19.9903 36.0879 19.9905 36.0607 19.9883 36.0244C19.9664 35.6656 20.0322 35.3093 20.0197 34.9504C20.0166 34.861 20.0112 34.8185 19.9014 34.819C19.7602 34.8197 19.6251 34.7725 19.5093 34.6678C19.6489 34.6589 19.7927 34.6591 19.9493 34.6548C20.0182 34.6027 20.0866 34.6136 20.1519 34.6114C20.4404 34.6012 20.7267 34.6289 21.0126 34.6621C21.0527 34.6668 21.088 34.6663 21.1208 34.6192C21.263 34.5729 21.3902 34.6086 21.5257 34.6502C21.5251 34.8008 21.4587 34.878 21.3359 34.8477C21.1842 34.8103 21.0437 34.8539 20.9 34.8705C20.7151 34.8918 20.5323 34.8982 20.3478 34.8711C20.1944 34.8487 20.1706 34.8702 20.1697 35.0234C20.1683 35.2652 20.169 35.507 20.1696 35.7488C20.17 35.9489 20.2483 36.1078 20.4213 36.2135C20.6196 36.3346 20.8143 36.4607 20.9969 36.6048C21.0193 36.6225 21.0437 36.6392 21.0711 36.6463C21.5344 36.7663 21.9151 37.0491 22.3217 37.2807C22.3464 37.2948 22.373 37.3069 22.3947 37.3247C22.6068 37.4991 22.8153 37.4913 23.0428 37.3413C23.633 36.9523 24.2755 36.6525 24.8757 36.2799C24.8838 36.2749 24.8916 36.2694 24.9001 36.2653C25.1183 36.1587 25.2025 35.9987 25.1962 35.7431C25.1775 34.9803 25.1895 34.2167 25.1895 33.4535C25.1895 33.4156 25.1921 33.3774 25.1887 33.3398C25.1846 33.2953 25.2053 33.2301 25.1471 33.2175C25.0843 33.2038 25.0826 33.2731 25.0648 33.3137C24.9871 33.4909 24.9826 33.4935 24.8068 33.4643C24.7532 33.4554 24.7002 33.4454 24.6922 33.3795C24.6847 33.3177 24.7064 33.2628 24.7656 33.239C24.829 33.2136 24.8686 33.1746 24.8822 33.0969C24.8859 33.0716 24.8896 33.0577 24.9003 33.0351C24.9568 32.9981 24.9949 33.0131 25.0256 33.0626C25.0496 32.9386 25.1306 32.8537 25.2229 32.7777C25.2668 32.7415 25.3128 32.7083 25.3331 32.6405Z"/>
</mask>
<path d="M25.3331 32.6405C25.5263 32.5204 25.6043 32.323 25.7119 32.1491C25.8389 31.9438 25.9635 31.7371 26.0974 31.5266C26.1402 31.7807 26.0051 31.9856 25.8802 32.1868C25.7549 32.3886 25.6381 32.6016 25.4254 32.7355C25.3477 32.7844 25.3386 32.8788 25.3095 32.9864C25.5961 32.8497 25.8715 32.7388 26.1262 32.5918C26.4785 32.3887 26.8267 32.1791 27.188 31.9919C27.4077 31.878 27.621 31.752 27.8393 31.6354C27.8715 31.6182 27.9174 31.5752 27.9515 31.6182C27.9844 31.6597 27.9204 31.6763 27.9061 31.7078C27.8479 31.836 27.7162 31.8757 27.6093 31.9383C27.0732 32.2522 26.5235 32.5426 25.9967 32.873C25.8379 32.9725 25.668 33.0556 25.498 33.1352C25.425 33.1693 25.3942 33.2036 25.3962 33.288C25.403 33.5726 25.4177 33.8587 25.3968 34.1418C25.3477 34.8083 25.3818 35.4749 25.3717 36.1413C25.3709 36.1889 25.3568 36.2092 25.3145 36.2348C24.6109 36.6605 23.8919 37.0601 23.1919 37.4921C23.0521 37.5783 22.9021 37.6678 22.7206 37.6732C22.4828 37.6803 22.3034 37.5459 22.112 37.4428C21.7838 37.2661 21.4858 37.0349 21.1332 36.902C21.1168 36.8958 21.0905 36.8865 21.0886 36.8752C21.0548 36.6763 20.8605 36.6936 20.7376 36.6231C20.5512 36.5161 20.3538 36.4276 20.174 36.3081C20.1047 36.2619 20.0434 36.2944 19.9836 36.3228C19.5663 36.521 19.1699 36.7565 18.7726 36.9916C18.3889 37.2186 18.0206 37.4759 17.602 37.639C17.4196 37.7101 17.2293 37.6906 17.072 37.5803C16.5315 37.2014 15.9611 36.8712 15.3904 36.5423C15.2272 36.4481 15.0384 36.3959 14.8574 36.3364C14.7939 36.3155 14.7189 36.3256 14.6539 36.364C14.1739 36.648 13.6807 36.9093 13.2068 37.2041C13.0365 37.3101 12.8657 37.4247 12.6797 37.4939C12.3395 37.6204 12.241 37.8777 12.2448 38.2007C12.2539 38.9763 12.2793 39.7516 12.2777 40.5275C12.2774 40.6774 12.222 40.7629 12.1114 40.831C11.6612 41.1084 11.2195 41.3996 10.7143 41.5778C10.5949 41.62 10.5055 41.7409 10.3933 41.811C10.2193 41.9197 10.0397 42.0201 9.86332 42.1247C9.64282 42.2555 9.62888 42.4393 9.66831 42.6761C9.67277 42.7028 9.68323 42.7293 9.68182 42.7576C9.65909 43.2158 9.71737 43.6722 9.71512 44.1304C9.7142 44.3163 9.73659 44.5045 9.73904 44.6923C9.74039 44.7958 9.68777 44.7936 9.62935 44.7479C9.56046 44.6941 9.50915 44.6351 9.50549 44.5271C9.49508 44.2198 9.56372 43.9151 9.53614 43.6099C9.49977 43.2074 9.53054 42.8026 9.48206 42.4011C9.46485 42.2586 9.39726 42.1582 9.26801 42.0859C8.82195 41.8362 8.38167 41.5762 7.93627 41.3253C7.63771 41.1572 7.33529 40.9964 7.04638 40.8109C6.95557 40.7526 6.92286 40.686 6.91817 40.5853C6.87814 39.7246 6.88209 38.8632 6.8981 38.0025C6.90233 37.7751 6.81952 37.6548 6.63779 37.5566C5.99843 37.2111 5.38726 36.8163 4.74707 36.4716C4.63425 36.4109 4.51738 36.3546 4.40871 36.2853C4.39127 36.2741 4.35524 36.2806 4.35955 36.2462C4.36323 36.2167 4.38196 36.1909 4.41319 36.1909C4.46923 36.1909 4.51369 36.1453 4.58333 36.1866C4.89296 36.3704 5.21781 36.5265 5.52637 36.7142C5.96378 36.9802 6.39078 37.2653 6.8559 37.4847C6.93603 37.5224 6.98978 37.5185 7.07079 37.4806C7.60707 37.2304 8.08758 36.8875 8.59189 36.5841C8.89984 36.3988 9.21225 36.2176 9.55802 36.1071C9.6135 36.0894 9.66516 36.0918 9.72249 36.1255C10.0961 36.3447 10.4683 36.5671 10.85 36.7717C11.2287 36.9747 11.5922 37.2017 11.9568 37.4276C12.1568 37.5515 12.3459 37.4996 12.5265 37.3859C13.1756 36.9769 13.8692 36.6435 14.5088 36.2188C14.7586 36.053 15.0032 36.0998 15.2208 36.2569C15.416 36.3977 15.6318 36.4963 15.837 36.6151C16.2089 36.8304 16.5694 37.0625 16.9282 37.2984C17.0308 37.3659 17.143 37.4219 17.2566 37.4692C17.4758 37.5605 17.6665 37.4429 17.8408 37.3458C18.3395 37.0682 18.8266 36.7696 19.3183 36.4793C19.5266 36.3564 19.733 36.2301 19.9445 36.1131C19.9903 36.0879 19.9905 36.0607 19.9883 36.0244C19.9664 35.6656 20.0322 35.3093 20.0197 34.9504C20.0166 34.861 20.0112 34.8185 19.9014 34.819C19.7602 34.8197 19.6251 34.7725 19.5093 34.6678C19.6489 34.6589 19.7927 34.6591 19.9493 34.6548C20.0182 34.6027 20.0866 34.6136 20.1519 34.6114C20.4404 34.6012 20.7267 34.6289 21.0126 34.6621C21.0527 34.6668 21.088 34.6663 21.1208 34.6192C21.263 34.5729 21.3902 34.6086 21.5257 34.6502C21.5251 34.8008 21.4587 34.878 21.3359 34.8477C21.1842 34.8103 21.0437 34.8539 20.9 34.8705C20.7151 34.8918 20.5323 34.8982 20.3478 34.8711C20.1944 34.8487 20.1706 34.8702 20.1697 35.0234C20.1683 35.2652 20.169 35.507 20.1696 35.7488C20.17 35.9489 20.2483 36.1078 20.4213 36.2135C20.6196 36.3346 20.8143 36.4607 20.9969 36.6048C21.0193 36.6225 21.0437 36.6392 21.0711 36.6463C21.5344 36.7663 21.9151 37.0491 22.3217 37.2807C22.3464 37.2948 22.373 37.3069 22.3947 37.3247C22.6068 37.4991 22.8153 37.4913 23.0428 37.3413C23.633 36.9523 24.2755 36.6525 24.8757 36.2799C24.8838 36.2749 24.8916 36.2694 24.9001 36.2653C25.1183 36.1587 25.2025 35.9987 25.1962 35.7431C25.1775 34.9803 25.1895 34.2167 25.1895 33.4535C25.1895 33.4156 25.1921 33.3774 25.1887 33.3398C25.1846 33.2953 25.2053 33.2301 25.1471 33.2175C25.0843 33.2038 25.0826 33.2731 25.0648 33.3137C24.9871 33.4909 24.9826 33.4935 24.8068 33.4643C24.7532 33.4554 24.7002 33.4454 24.6922 33.3795C24.6847 33.3177 24.7064 33.2628 24.7656 33.239C24.829 33.2136 24.8686 33.1746 24.8822 33.0969C24.8859 33.0716 24.8896 33.0577 24.9003 33.0351C24.9568 32.9981 24.9949 33.0131 25.0256 33.0626C25.0496 32.9386 25.1306 32.8537 25.2229 32.7777C25.2668 32.7415 25.3128 32.7083 25.3331 32.6405Z" fill="white" stroke="white" stroke-width="2" mask="url(#path-13-inside-4_61_9)"/>
<path d="M15.6263 13.458L15.6263 13.458C15.6778 13.7113 15.6572 13.9457 15.5652 14.1599L16.0246 14.3572L15.5652 14.1599C15.4682 14.3858 15.2956 14.5501 15.0409 14.6547C14.8601 14.729 14.6856 14.7664 14.5096 14.7637C14.2198 14.7592 13.994 14.6677 13.7891 14.4681C13.5777 14.2622 13.4619 14.0173 13.4299 13.7333L13.4299 13.7333C13.3774 13.2678 13.5528 12.8856 13.9975 12.6781C14.4015 12.5006 14.7308 12.4845 15.0384 12.6382C15.3563 12.7972 15.5459 13.0632 15.6263 13.458Z" fill="white" stroke="white"/>
<path d="M11.2346 10.917L11.2346 10.917L11.2366 10.916C11.3067 10.8805 11.3632 10.8507 11.4109 10.8254C11.5262 10.7644 11.5905 10.7304 11.6733 10.7099L11.6733 10.7099C11.9166 10.6496 12.1213 10.6918 12.3095 10.8363C12.6352 11.0866 12.7843 11.3742 12.7663 11.7385C12.7571 11.9256 12.6896 12.0895 12.558 12.234C12.3929 12.4152 12.2417 12.5167 12.0678 12.5581L12.1835 13.0445L12.0678 12.5581C11.7129 12.6424 11.4447 12.5806 11.1943 12.3546C10.9443 12.1288 10.8526 11.8734 10.8957 11.5717C10.9499 11.1921 11.0372 11.0157 11.2346 10.917Z" fill="white" stroke="white"/>
<path d="M11.9576 16.0353C12.0005 16.0575 12.0367 16.0782 12.0638 16.0937C12.0742 16.0997 12.0832 16.1049 12.0907 16.109L11.9576 16.0353ZM11.9576 16.0353C11.9544 16.0274 11.951 16.0194 11.9475 16.0114C11.9112 15.9294 11.8557 15.8366 11.7697 15.7547C11.7378 15.6134 11.7272 15.4894 11.7404 15.3729C11.7447 15.367 11.7507 15.3593 11.759 15.3495L11.9576 16.0353ZM12.2157 15.0646L12.2157 15.0646C12.1338 15.0577 12.075 15.0748 12.0142 15.1111C11.9421 15.1543 11.8619 15.2283 11.759 15.3495L12.2157 15.0646ZM12.2157 15.0646C12.2797 15.07 12.3382 15.0696 12.3821 15.0686C12.4065 15.0681 12.4232 15.0675 12.4373 15.0671C12.4552 15.0665 12.4689 15.066 12.4888 15.0659C12.4995 15.0658 12.5083 15.0659 12.5156 15.0662M12.2157 15.0646L12.5156 15.0662M12.5156 15.0662C12.7144 15.203 12.7724 15.2688 12.8009 15.3651C12.9104 15.7341 12.7127 16.0514 12.3827 16.1384C12.267 16.1689 12.178 16.1575 12.0907 16.1091L12.5156 15.0662ZM11.4859 15.5827C11.4886 15.5835 11.4928 15.5849 11.498 15.5867C11.49 15.584 11.4824 15.5815 11.4769 15.5799C11.4794 15.5806 11.4825 15.5815 11.4859 15.5827ZM12.5448 15.0688C12.5452 15.0689 12.5454 15.0689 12.5454 15.0689L12.5448 15.0688Z" fill="white" stroke="white"/>
<path d="M37.5982 33.8902C37.6835 33.9149 37.7078 33.9684 37.7041 34.0517C37.6969 34.2126 37.7098 34.3745 37.7012 34.5352C37.6959 34.6363 37.7346 34.6679 37.8282 34.6704C38.1884 34.6799 38.5484 34.7008 38.9086 34.7035C39.7196 34.7095 40.5308 34.7101 41.3418 34.7069C41.6593 34.7057 41.9764 34.6859 42.2931 34.6584C42.3982 34.6493 42.4269 34.6144 42.4256 34.5114C42.4156 33.6483 42.4108 32.7851 42.4047 31.9219C42.4046 31.8983 42.4077 31.8747 42.4165 31.8418C42.495 31.9609 42.4561 32.1055 42.4752 32.2413C42.5181 32.5477 42.5076 32.8612 42.5426 33.1691C42.5916 33.5996 42.5515 34.03 42.5683 34.46C42.579 34.7334 42.4437 34.843 42.1727 34.852C41.5997 34.8709 41.0263 34.841 40.4556 34.8142C39.7882 34.7828 39.1242 34.8637 38.4588 34.8229C38.2567 34.8105 38.0529 34.8496 37.852 34.7963C37.627 34.7366 37.5646 34.6508 37.5551 34.4185C37.548 34.2425 37.5897 34.0714 37.5982 33.8902Z" fill="white"/>
<path d="M12.728 14.5965C12.5344 14.6061 12.3405 14.6009 12.1467 14.6045C11.6307 14.6139 11.1926 15.1526 11.288 15.6541C11.3118 15.7791 11.3385 15.9042 11.3345 16.0455C11.1785 15.9645 11.1466 15.8074 11.1346 15.6467C11.0845 14.9707 11.5025 14.5835 12.0648 14.4378C12.24 14.3924 12.4182 14.3843 12.5925 14.4432C12.6585 14.4656 12.7277 14.4957 12.728 14.5965Z" fill="white"/>
<path d="M13.1097 38.5398L13.1097 38.5398C13.1249 38.5397 13.1351 38.5407 13.1416 38.542C13.1422 38.5465 13.1428 38.5538 13.1423 38.5645C13.1371 38.6793 13.1382 38.7959 13.1393 38.9143C13.1398 38.9646 13.1403 39.0152 13.1403 39.0661C13.1403 39.1252 13.1399 39.1838 13.1394 39.242C13.1384 39.3808 13.1374 39.5171 13.1423 39.652C13.1427 39.6634 13.1421 39.671 13.1413 39.6757C13.135 39.6769 13.125 39.6779 13.11 39.6777C13.0975 39.6776 13.0889 39.6767 13.0831 39.6757C13.0825 39.6715 13.082 39.6655 13.0821 39.657C13.0869 39.2916 13.0869 38.9261 13.0821 38.5607C13.082 38.5521 13.0825 38.546 13.0831 38.5419C13.0888 38.5408 13.0974 38.54 13.1097 38.5398Z" fill="white" stroke="white" stroke-width="0.2"/>
<path d="M42.4202 31.5137C42.3536 31.331 42.3673 31.1257 42.3491 30.925C42.2979 30.3607 42.2601 29.7951 42.2228 29.222C42.3132 29.5098 42.3793 29.8056 42.4038 30.1167C42.4401 30.5788 42.4106 31.0394 42.4202 31.5137Z" fill="white"/>
<path d="M11.3335 16.0696C11.5181 16.0957 11.5426 16.1304 11.559 16.3905C11.425 16.3358 11.3021 16.2626 11.3335 16.0696Z" fill="white"/>
<path d="M21.1183 34.6202C21.1971 34.7968 21.0396 34.7074 21.0211 34.7034C20.8481 34.6665 20.6718 34.6711 20.4977 34.6559C20.3292 34.6412 20.1583 34.6526 19.9753 34.6515C19.9615 34.4846 19.9626 34.3187 19.9594 34.1529C19.9577 34.0599 19.9446 33.9663 19.9386 33.8747C19.92 33.5874 19.9443 33.3009 20.0834 33.0383C20.096 33.0145 20.1198 32.993 20.1435 32.9793C20.5251 32.7583 20.9068 32.5375 21.29 32.3193C21.6532 32.1124 22.0136 31.9002 22.384 31.707C22.5885 31.6003 22.8088 31.59 23.0191 31.7181C23.3957 31.9476 23.7567 32.2042 24.1638 32.3807C24.4481 32.5039 24.7208 32.6464 24.9515 32.8566C24.9883 32.8903 25.0144 32.8701 25.0335 32.8564C25.1311 32.7867 25.2247 32.7114 25.3286 32.6347C25.3504 32.7015 25.331 32.7414 25.2646 32.7889C25.1873 32.8443 25.1102 32.911 25.0722 33.0182C25.0307 33.1357 24.9639 33.0166 24.8958 33.0138C24.8349 33.071 24.7976 33.0252 24.7606 33.0023C24.2241 32.6706 23.6712 32.3673 23.1258 32.0509C23.1012 32.0367 23.0748 32.0257 23.0502 32.0114C22.7588 31.8421 22.4846 31.8687 22.215 32.0686C21.9329 32.2778 21.6389 32.4709 21.3193 32.6185C21.0041 32.7642 20.715 32.9556 20.4108 33.1202C20.3517 33.1522 20.2959 33.1903 20.2872 33.2658C20.2407 33.6657 20.2544 34.0666 20.2646 34.4676C20.3069 34.331 20.3249 34.1952 20.3077 34.0504C20.2803 33.8198 20.2739 33.5869 20.3206 33.3567C20.3338 33.2916 20.3464 33.2111 20.4231 33.2015C20.5091 33.1908 20.5368 33.2741 20.5656 33.3376C20.6091 33.4338 20.625 33.5366 20.6248 33.6424C20.6244 33.8748 20.6221 34.1071 20.6257 34.3395C20.6286 34.5291 20.6572 34.556 20.8454 34.5813C20.9339 34.5932 21.0266 34.5677 21.1183 34.6202Z" fill="white"/>
<path d="M24.915 33.069C24.8185 33.1233 24.743 33.0469 24.6665 33.0221C24.2933 32.9009 23.9745 32.6705 23.6384 32.472C23.6984 32.4703 23.7536 32.5076 23.8509 32.4651C23.5456 32.4349 23.3315 32.2688 23.0907 32.163C22.9957 32.1213 22.889 32.1504 22.7778 32.1691C23.3132 32.6505 23.9566 32.9637 24.572 33.3355C24.4118 33.4113 24.3414 33.5707 24.2328 33.6957C23.9641 34.0051 23.593 34.142 23.2255 34.281C22.7689 34.4538 22.2941 34.5622 21.8146 34.6469C21.7298 34.6619 21.6415 34.6776 21.5414 34.6818C21.4077 34.6311 21.2762 34.6438 21.1374 34.6269C21.0006 34.6072 20.8725 34.6135 20.7479 34.6058C20.5662 34.5945 20.5931 34.4761 20.5897 34.3801C20.5805 34.1197 20.5899 33.8587 20.5853 33.5981C20.5827 33.4527 20.5454 33.316 20.4315 33.2003C20.3401 33.2942 20.3369 33.4146 20.3347 33.5212C20.3308 33.7177 20.3227 33.9141 20.3525 34.1127C20.3769 34.2751 20.3703 34.4523 20.2156 34.611C20.2197 34.1287 20.2039 33.6776 20.2438 33.227C20.2484 33.1757 20.2767 33.1595 20.3156 33.1367C20.6085 32.965 20.8923 32.7751 21.2018 32.6352C21.6032 32.4537 21.9562 32.1955 22.3231 31.9594C22.5262 31.8288 22.7343 31.8234 22.9432 31.9199C23.2942 32.082 23.6194 32.2923 23.9548 32.4836C24.2181 32.6339 24.4763 32.7932 24.7412 32.9405C24.7885 32.9668 24.8061 33.0392 24.8802 33.023C24.8946 33.032 24.9051 33.0441 24.915 33.069Z" fill="white"/>
</svg>
