<svg width="50" height="50" viewBox="0 0 50 50" fill="none" xmlns="http://www.w3.org/2000/svg">
<path d="M14.6575 31.3636H17.0636V32.7155H13.0902V31.3636L15.086 29.0661C15.2642 28.856 15.396 28.6505 15.4815 28.4498C15.567 28.2493 15.6096 28.0408 15.6096 27.8242C15.6096 27.4899 15.523 27.2207 15.3496 27.0169C15.1788 26.8131 14.9505 26.7112 14.6649 26.7112C14.4451 26.7112 14.2047 26.7734 13.9434 26.8976C13.6822 27.0186 13.4027 27.2 13.1048 27.4421V25.8753C13.4222 25.7385 13.7359 25.635 14.0461 25.5649C14.3561 25.4916 14.66 25.4549 14.9578 25.4549C15.6122 25.4549 16.1199 25.6429 16.4812 26.0186C16.845 26.3944 17.0269 26.9182 17.0269 27.5901C17.0269 27.9786 16.95 28.3417 16.7962 28.6792C16.6425 29.0135 16.3189 29.4627 15.8257 30.0262L14.6576 31.3637M36.4937 34.047C36.8622 34.1712 37.1418 34.3877 37.3323 34.6967C37.5251 35.0024 37.6216 35.3924 37.6216 35.8669C37.6216 36.5739 37.414 37.112 36.999 37.4814C36.584 37.8477 35.9785 38.0308 35.1826 38.0308C34.9018 38.0308 34.6198 38.0005 34.3366 37.9399C34.0533 37.8818 33.7741 37.7939 33.5016 37.6772V36.2585C33.7654 36.4305 34.0266 36.5609 34.2854 36.6502C34.5466 36.7361 34.8029 36.779 35.0544 36.779C35.428 36.779 35.7136 36.6947 35.9114 36.526C36.1116 36.3572 36.2117 36.1151 36.2117 35.7998C36.2117 35.475 36.1092 35.2298 35.9041 35.0642C35.7014 34.8954 35.4011 34.8111 35.0032 34.811H34.4393V33.6265H35.0326C35.3866 33.6265 35.6503 33.5547 35.8236 33.4114C35.9969 33.265 36.0836 33.0438 36.0836 32.7475C36.0836 32.4736 35.9994 32.2619 35.8309 32.1122C35.6624 31.9625 35.4244 31.8877 35.1168 31.8877C34.8898 31.8877 34.6602 31.9211 34.4283 31.9881C34.1964 32.055 33.9656 32.1536 33.7362 32.2842V30.9372C34.0079 30.8372 34.2844 30.7606 34.5638 30.708C34.8306 30.6577 35.0998 30.6322 35.3694 30.6316C36.0799 30.6316 36.6109 30.7845 36.9626 31.0902C37.3165 31.3927 37.4935 31.8497 37.4935 32.4611C37.4935 32.8783 37.4092 33.2207 37.2408 33.4881C37.0723 33.7524 36.8233 33.9387 36.4937 34.047M23.7539 18.3755H24.999V13.766L23.7209 14.11V12.8585L24.9917 12.5145H26.332V18.3755H27.5771V19.646H23.7539V18.3755ZM40 40V28.2609H31V10H20V23.0435H10V40H40Z" fill="#F8F8F8"/>
</svg>
