<svg width="50" height="50" viewBox="0 0 50 50" fill="none" xmlns="http://www.w3.org/2000/svg">
<path fill-rule="evenodd" clip-rule="evenodd" d="M21.6751 10C21.1243 9.99974 20.5847 10.15 20.1191 10.4332C19.6536 10.7164 19.2811 11.1211 19.045 11.6C17.9079 11.6096 17.0235 11.6592 16.2322 11.9568C15.2875 12.3124 14.4659 12.9168 13.8615 13.7008C13.2513 14.4896 12.9637 15.504 12.5714 16.8976L12.4933 17.1696L11.6404 21.912C11.3329 22.1168 11.0652 22.36 10.8325 22.6464C9.33458 24.4912 10.0478 27.2384 11.4742 32.728C12.3802 36.2208 12.8341 37.9664 14.1873 38.984C15.5406 40 17.4108 40 21.1514 40H28.8486C32.5892 40 34.4594 40 35.8127 38.984C37.1659 37.9664 37.6181 36.2208 38.5258 32.728C39.9522 27.2368 40.6654 24.4928 39.1675 22.6464C38.9386 22.3625 38.6655 22.1142 38.3579 21.9104L37.5051 17.1712L37.4286 16.8992C37.0346 15.504 36.747 14.4896 36.1385 13.6992C35.5338 12.9158 34.7123 12.312 33.7678 11.9568C32.9765 11.6592 32.0904 11.6096 30.955 11.6016C30.7191 11.1224 30.3468 10.7174 29.8812 10.4339C29.4156 10.1503 28.8759 9.99988 28.3249 10H21.6751ZM35.6697 21.0336L35.0679 17.6928C34.5974 16.0288 34.4262 15.5056 34.1369 15.1312C33.8114 14.709 33.3689 14.3835 32.8601 14.192C32.4944 14.0544 32.0522 14.0144 30.9516 14.0032C30.7153 14.4811 30.3432 14.8847 29.8783 15.1673C29.4134 15.4499 28.8748 15.5999 28.3249 15.6H21.6751C21.1252 15.5999 20.5866 15.4499 20.1217 15.1673C19.6568 14.8847 19.2847 14.4811 19.0484 14.0032C17.9462 14.0144 17.5056 14.0544 17.1399 14.192C16.6311 14.3835 16.1886 14.709 15.8631 15.1312C15.5738 15.5056 15.4026 16.0272 14.9321 17.6912L14.3303 21.0336C15.9894 20.8 18.2005 20.8 21.1514 20.8H28.8486C31.7995 20.8 34.0106 20.8 35.6697 21.0336ZM18.3501 26C18.6808 26 18.998 26.1264 19.2318 26.3515C19.4656 26.5765 19.597 26.8817 19.597 27.2V33.6C19.597 33.9183 19.4656 34.2235 19.2318 34.4485C18.998 34.6736 18.6808 34.8 18.3501 34.8C18.0194 34.8 17.7023 34.6736 17.4685 34.4485C17.2346 34.2235 17.1033 33.9183 17.1033 33.6V27.2C17.1033 26.8817 17.2346 26.5765 17.4685 26.3515C17.7023 26.1264 18.0194 26 18.3501 26ZM32.8967 27.2C32.8967 26.8817 32.7654 26.5765 32.5315 26.3515C32.2977 26.1264 31.9806 26 31.6499 26C31.3192 26 31.002 26.1264 30.7682 26.3515C30.5344 26.5765 30.403 26.8817 30.403 27.2V33.6C30.403 33.9183 30.5344 34.2235 30.7682 34.4485C31.002 34.6736 31.3192 34.8 31.6499 34.8C31.9806 34.8 32.2977 34.6736 32.5315 34.4485C32.7654 34.2235 32.8967 33.9183 32.8967 33.6V27.2ZM25 26C25.3307 26 25.6478 26.1264 25.8817 26.3515C26.1155 26.5765 26.2469 26.8817 26.2469 27.2V33.6C26.2469 33.9183 26.1155 34.2235 25.8817 34.4485C25.6478 34.6736 25.3307 34.8 25 34.8C24.6693 34.8 24.3522 34.6736 24.1183 34.4485C23.8845 34.2235 23.7532 33.9183 23.7532 33.6V27.2C23.7532 26.8817 23.8845 26.5765 24.1183 26.3515C24.3522 26.1264 24.6693 26 25 26Z" fill="white"/>
</svg>
