<svg width="50" height="50" viewBox="0 0 50 50" fill="none" xmlns="http://www.w3.org/2000/svg">
<path d="M16.6667 40V36.6667H23.3333V31.5C21.9722 31.1944 20.7572 30.6183 19.6883 29.7717C18.6194 28.925 17.8344 27.8622 17.3333 26.5833C15.25 26.3333 13.5072 25.4239 12.105 23.855C10.7028 22.2861 10.0011 20.4456 10 18.3333V13.3333H16.6667V10H33.3333V13.3333H40V18.3333C40 20.4444 39.2983 22.285 37.895 23.855C36.4917 25.425 34.7489 26.3344 32.6667 26.5833C32.1667 27.8611 31.3822 28.9239 30.3133 29.7717C29.2444 30.6194 28.0289 31.1956 26.6667 31.5V36.6667H33.3333V40H16.6667ZM16.6667 23V16.6667H13.3333V18.3333C13.3333 19.3889 13.6389 20.3406 14.25 21.1883C14.8611 22.0361 15.6667 22.64 16.6667 23ZM33.3333 23C34.3333 22.6389 35.1389 22.0344 35.75 21.1867C36.3611 20.3389 36.6667 19.3878 36.6667 18.3333V16.6667H33.3333V23Z" fill="#F8F8F8"/>
</svg>
