<svg width="50" height="50" viewBox="0 0 50 50" fill="none" xmlns="http://www.w3.org/2000/svg">
<path d="M30.6299 33.2016C30.9099 32.984 31.1643 32.7296 31.6715 32.2224L38.0026 25.8896C38.1562 25.7376 38.0858 25.4736 37.8826 25.4016C36.8919 25.0563 35.9925 24.4906 35.2522 23.7472C34.5088 23.0069 33.9431 22.1075 33.5979 21.1168C33.5259 20.9136 33.2619 20.8432 33.1099 20.9968L26.7756 27.328C26.2684 27.8352 26.014 28.0896 25.7964 28.3696C25.5388 28.7008 25.3164 29.0576 25.1372 29.4352C24.9852 29.7552 24.8716 30.0976 24.6444 30.7792L24.35 31.6592L23.8829 33.0592L23.4461 34.3712C23.3916 34.5356 23.3839 34.712 23.4239 34.8805C23.4638 35.0491 23.5499 35.2032 23.6724 35.3257C23.7948 35.4482 23.949 35.5342 24.1175 35.5742C24.2861 35.6141 24.4624 35.6064 24.6268 35.552L25.9388 35.1152L27.3388 34.648L28.2188 34.3536C28.9004 34.1264 29.2428 34.0144 29.5627 33.8608C29.9403 33.68 30.3003 33.4608 30.6299 33.2016ZM39.9865 23.9072C40.6356 23.2579 41.0001 22.3774 40.9999 21.4594C40.9998 20.5414 40.635 19.661 39.9857 19.012C39.3365 18.3629 38.456 17.9984 37.538 17.9985C36.62 17.9987 35.7397 18.3635 35.0906 19.0128L34.889 19.2176C34.7922 19.3131 34.72 19.4307 34.6787 19.5603C34.6375 19.6899 34.6284 19.8276 34.6522 19.9616C34.6842 20.1328 34.7402 20.3856 34.8442 20.6848C35.0522 21.2848 35.4458 22.072 36.1866 22.8128C36.7849 23.4159 37.5126 23.8749 38.3146 24.1552C38.6154 24.2592 38.8666 24.3152 39.0378 24.3472C39.1717 24.3709 39.3093 24.3617 39.4389 24.3205C39.5685 24.2792 39.6862 24.2071 39.7817 24.1104L39.9865 23.9072Z" fill="#F8F8F8"/>
<path fill-rule="evenodd" clip-rule="evenodd" d="M10.8752 10.8752C9 12.7488 9 15.7664 9 21.8V28.2C9 34.2336 9 37.2512 10.8752 39.1248C12.7487 41 15.7663 41 21.7997 41H24.9997C31.0332 41 34.0507 41 35.9243 39.1248C37.769 37.2816 37.7994 34.3312 37.7994 28.488L33.2907 32.9968C32.8587 33.4288 32.5051 33.7824 32.1067 34.0944C31.6387 34.4593 31.1322 34.772 30.5964 35.0272C30.1051 35.2475 29.6007 35.4372 29.086 35.5952L25.3869 36.8288C24.7997 37.0246 24.1695 37.0531 23.567 36.9109C22.9646 36.7687 22.4136 36.4615 21.9759 36.0238C21.5382 35.5861 21.2311 35.0351 21.0889 34.4327C20.9467 33.8302 20.9751 33.2 21.171 32.6128L21.6093 31.3008L22.3693 29.0192L22.4029 28.9136C22.5965 28.3344 22.7549 27.8608 22.9725 27.4032C23.2285 26.8672 23.5405 26.3616 23.9053 25.8944C24.2173 25.4944 24.5709 25.1424 25.0029 24.7104L31.4124 18.2992L33.1915 16.52L33.3947 16.3168C33.9384 15.7715 34.5846 15.3391 35.2961 15.0445C36.0075 14.7499 36.7702 14.5988 37.5402 14.6C37.2986 12.952 36.8298 11.7792 35.9243 10.8752C34.0507 9 31.0332 9 24.9997 9H21.7997C15.7663 9 12.7487 9 10.8752 10.8752ZM15.7999 20.2C15.7999 19.8817 15.9263 19.5765 16.1513 19.3515C16.3764 19.1264 16.6816 19 16.9998 19H27.3996C27.7179 19 28.0231 19.1264 28.2481 19.3515C28.4732 19.5765 28.5996 19.8817 28.5996 20.2C28.5996 20.5183 28.4732 20.8235 28.2481 21.0485C28.0231 21.2736 27.7179 21.4 27.3996 21.4H16.9998C16.6816 21.4 16.3764 21.2736 16.1513 21.0485C15.9263 20.8235 15.7999 20.5183 15.7999 20.2ZM15.7999 26.6C15.7999 26.2817 15.9263 25.9765 16.1513 25.7515C16.3764 25.5264 16.6816 25.4 16.9998 25.4H20.9998C21.318 25.4 21.6232 25.5264 21.8483 25.7515C22.0733 25.9765 22.1997 26.2817 22.1997 26.6C22.1997 26.9183 22.0733 27.2235 21.8483 27.4485C21.6232 27.6736 21.318 27.8 20.9998 27.8H16.9998C16.6816 27.8 16.3764 27.6736 16.1513 27.4485C15.9263 27.2235 15.7999 26.9183 15.7999 26.6ZM15.7999 33C15.7999 32.6817 15.9263 32.3765 16.1513 32.1515C16.3764 31.9264 16.6816 31.8 16.9998 31.8H19.3998C19.718 31.8 20.0233 31.9264 20.2483 32.1515C20.4733 32.3765 20.5998 32.6817 20.5998 33C20.5998 33.3183 20.4733 33.6235 20.2483 33.8485C20.0233 34.0736 19.718 34.2 19.3998 34.2H16.9998C16.6816 34.2 16.3764 34.0736 16.1513 33.8485C15.9263 33.6235 15.7999 33.3183 15.7999 33Z" fill="#F8F8F8"/>
</svg>
