<svg width="35" height="35" viewBox="0 0 35 35" fill="none" xmlns="http://www.w3.org/2000/svg">
<path d="M10.15 0H24.85C30.45 0 35 4.55 35 10.15V24.85C35 27.5419 33.9306 30.1236 32.0271 32.0271C30.1236 33.9306 27.5419 35 24.85 35H10.15C4.55 35 0 30.45 0 24.85V10.15C0 7.45805 1.06937 4.87636 2.97287 2.97287C4.87636 1.06937 7.45805 0 10.15 0ZM9.8 3.5C8.12914 3.5 6.52671 4.16375 5.34523 5.34523C4.16375 6.52671 3.5 8.12914 3.5 9.8V25.2C3.5 28.6825 6.3175 31.5 9.8 31.5H25.2C26.8709 31.5 28.4733 30.8363 29.6548 29.6548C30.8363 28.4733 31.5 26.8709 31.5 25.2V9.8C31.5 6.3175 28.6825 3.5 25.2 3.5H9.8ZM26.6875 6.125C27.2677 6.125 27.8241 6.35547 28.2343 6.7657C28.6445 7.17594 28.875 7.73234 28.875 8.3125C28.875 8.89266 28.6445 9.44906 28.2343 9.8593C27.8241 10.2695 27.2677 10.5 26.6875 10.5C26.1073 10.5 25.5509 10.2695 25.1407 9.8593C24.7305 9.44906 24.5 8.89266 24.5 8.3125C24.5 7.73234 24.7305 7.17594 25.1407 6.7657C25.5509 6.35547 26.1073 6.125 26.6875 6.125ZM17.5 8.75C19.8206 8.75 22.0462 9.67187 23.6872 11.3128C25.3281 12.9538 26.25 15.1794 26.25 17.5C26.25 19.8206 25.3281 22.0462 23.6872 23.6872C22.0462 25.3281 19.8206 26.25 17.5 26.25C15.1794 26.25 12.9538 25.3281 11.3128 23.6872C9.67187 22.0462 8.75 19.8206 8.75 17.5C8.75 15.1794 9.67187 12.9538 11.3128 11.3128C12.9538 9.67187 15.1794 8.75 17.5 8.75ZM17.5 12.25C16.1076 12.25 14.7723 12.8031 13.7877 13.7877C12.8031 14.7723 12.25 16.1076 12.25 17.5C12.25 18.8924 12.8031 20.2277 13.7877 21.2123C14.7723 22.1969 16.1076 22.75 17.5 22.75C18.8924 22.75 20.2277 22.1969 21.2123 21.2123C22.1969 20.2277 22.75 18.8924 22.75 17.5C22.75 16.1076 22.1969 14.7723 21.2123 13.7877C20.2277 12.8031 18.8924 12.25 17.5 12.25Z" fill="#F8F8F8"/>
</svg>
