<svg width="35" height="40" viewBox="0 0 35 40" fill="none" xmlns="http://www.w3.org/2000/svg">
<path d="M23.9312 33.3365L17.5 30.0409L11.0688 33.3365L12.775 26.974L7.10939 22.7069L14.5688 22.1545L17.5 16.192L20.4312 22.1545L27.8906 22.7069L22.225 26.974M35 0H2.58872e-05V3.80988L10.6313 10.7439C6.92216 12.1223 3.87355 14.5739 2.00101 17.6842C0.128464 20.7944 -0.453088 24.3724 0.354704 27.8131C1.1625 31.2537 3.31006 34.3458 6.43419 36.5665C9.55832 38.7871 13.4673 40 17.5 40C21.5327 40 25.4417 38.7871 28.5658 36.5665C31.6899 34.3458 33.8375 31.2537 34.6453 27.8131C35.4531 24.3724 34.8715 20.7944 32.999 17.6842C31.1264 14.5739 28.0778 12.1223 24.3687 10.7439L35 3.80988M30.625 24.7642C30.6262 26.9288 29.9215 29.0491 28.593 30.8785C27.2645 32.708 25.3668 34.1713 23.1206 35.0982C20.8745 36.0251 18.3722 36.3776 15.905 36.1146C13.4379 35.8515 11.1072 34.9838 9.18415 33.6124C7.26112 32.241 5.82481 30.4222 5.04233 28.3677C4.25986 26.3132 4.16339 24.1075 4.76415 22.0071C5.36491 19.9068 6.6382 17.9981 8.43588 16.5033C10.2336 15.0085 12.4817 13.9889 14.9188 13.5632C16.6218 13.2583 18.3782 13.2583 20.0812 13.5632C23.0539 14.0824 25.7284 15.4819 27.6505 17.5238C29.5725 19.5656 30.6236 22.124 30.625 24.7642ZM18.8781 9.52471H16.1219L7.37189 3.80988H27.8031L18.8781 9.52471Z" fill="#0D5568"/>
</svg>
