<svg width="20" height="20" viewBox="0 0 20 20" fill="none" xmlns="http://www.w3.org/2000/svg">
<path d="M10 20C8.61667 20 7.31667 19.7373 6.1 19.212C4.88333 18.6867 3.825 17.9743 2.925 17.075C2.025 16.175 1.31267 15.1167 0.788 13.9C0.263333 12.6833 0.000666667 11.3833 0 10C0 8.61667 0.262667 7.31667 0.788 6.1C1.31333 4.88333 2.02567 3.825 2.925 2.925C3.825 2.025 4.88333 1.31267 6.1 0.788C7.31667 0.263333 8.61667 0.000666667 10 0C11.3833 0 12.6833 0.262667 13.9 0.788C15.1167 1.31333 16.175 2.02567 17.075 2.925C17.975 3.825 18.6877 4.88333 19.213 6.1C19.7383 7.31667 20.0007 8.61667 20 10C20 11.3833 19.7373 12.6833 19.212 13.9C18.6867 15.1167 17.9743 16.175 17.075 17.075C16.175 17.975 15.1167 18.6877 13.9 19.213C12.6833 19.7383 11.3833 20.0007 10 20ZM10 18C12.2333 18 14.125 17.225 15.675 15.675C17.225 14.125 18 12.2333 18 10C18 9.88333 17.996 9.76233 17.988 9.637C17.98 9.51167 17.9757 9.40767 17.975 9.325C17.8917 9.80833 17.6667 10.2083 17.3 10.525C16.9333 10.8417 16.5 11 16 11H14C13.45 11 12.9793 10.8043 12.588 10.413C12.1967 10.0217 12.0007 9.55067 12 9V8H8V6C8 5.45 8.196 4.97933 8.588 4.588C8.98 4.19667 9.45067 4.00067 10 4H11C11 3.61667 11.1043 3.27933 11.313 2.988C11.5217 2.69667 11.7757 2.459 12.075 2.275C11.7417 2.19167 11.4043 2.125 11.063 2.075C10.7217 2.025 10.3673 2 10 2C7.76667 2 5.875 2.775 4.325 4.325C2.775 5.875 2 7.76667 2 10H7C8.1 10 9.04167 10.3917 9.825 11.175C10.6083 11.9583 11 12.9 11 14V15H8V17.75C8.33333 17.8333 8.66267 17.896 8.988 17.938C9.31333 17.98 9.65067 18.0007 10 18Z" fill="#F8F8F8"/>
</svg>
