<svg width="35" height="35" viewBox="0 0 35 35" fill="none" xmlns="http://www.w3.org/2000/svg">
<path d="M10.01 25.3091L13.0917 24.4201L31.647 5.64372C31.7933 5.49375 31.8748 5.29222 31.8738 5.08268C31.8728 4.87313 31.7895 4.67238 31.6417 4.52378L30.5305 3.40035C30.4586 3.32657 30.3729 3.26783 30.2781 3.22756C30.1833 3.18729 30.0815 3.1663 29.9786 3.16581C29.8756 3.16532 29.7736 3.18535 29.6784 3.22471C29.5833 3.26408 29.497 3.322 29.4245 3.3951L10.9182 22.1225L10.01 25.3091ZM32.7302 1.17448L33.8414 2.29966C35.3744 3.85182 35.3884 6.35593 33.8694 7.89234L14.749 27.2427L8.16199 29.1396C7.75983 29.2521 7.32945 29.2006 6.96527 28.9962C6.6011 28.7918 6.33289 28.4513 6.21949 28.0494C6.13511 27.7605 6.1339 27.4536 6.21599 27.164L8.13224 20.4444L27.202 1.14473C27.5646 0.779629 27.9963 0.490378 28.4718 0.293848C28.9474 0.097318 29.4574 -0.00255644 29.9719 4.97196e-05C30.4865 0.00265588 30.9954 0.10769 31.469 0.309027C31.9426 0.510364 32.3713 0.805723 32.7302 1.17448ZM12.572 3.19211C13.44 3.19211 14.1435 3.90432 14.1435 4.78277C14.1449 4.99043 14.1053 5.19632 14.027 5.38868C13.9488 5.58103 13.8334 5.75608 13.6875 5.90381C13.5415 6.05154 13.3679 6.16905 13.1765 6.24963C12.9851 6.33021 12.7797 6.37228 12.572 6.37343H6.28599C4.54999 6.37343 3.143 7.79784 3.143 9.55299V28.6374C3.143 30.3943 4.54999 31.8187 6.28599 31.8187H25.144C26.88 31.8187 28.2887 30.3943 28.2887 28.6374V22.2765C28.2887 21.398 28.9922 20.6858 29.8602 20.6858C30.7282 20.6858 31.4317 21.398 31.4317 22.2782V28.6374C31.4317 32.1512 28.616 35 25.144 35H6.28599C2.814 35 0 32.1512 0 28.6374V9.55299C0 6.04095 2.814 3.19211 6.28599 3.19211H12.572Z" fill="#0D5568"/>
</svg>
