<svg width="20" height="20" viewBox="0 0 20 20" fill="none" xmlns="http://www.w3.org/2000/svg">
<g clip-path="url(#clip0_59_292)">
<path fill-rule="evenodd" clip-rule="evenodd" d="M2.35637 0.638689C2.57508 0.4203 2.83772 0.250887 3.12686 0.141677C3.41601 0.0324666 3.72506 -0.0140472 4.03354 0.00521808C4.34202 0.0244833 4.64288 0.109088 4.91619 0.253424C5.1895 0.397761 5.42902 0.598535 5.61887 0.842439L7.86262 3.72494C8.27387 4.25369 8.41887 4.94244 8.25637 5.59244L7.57262 8.32994C7.53751 8.47174 7.53954 8.62019 7.57852 8.76098C7.61749 8.90176 7.69209 9.03013 7.79512 9.13369L10.8664 12.2049C10.97 12.3082 11.0986 12.3829 11.2397 12.4219C11.3807 12.4609 11.5294 12.4628 11.6714 12.4274L14.4076 11.7437C14.7284 11.664 15.0631 11.658 15.3866 11.7262C15.71 11.7944 16.0138 11.935 16.2751 12.1374L19.1576 14.3799C20.1939 15.1862 20.2889 16.7174 19.3614 17.6437L18.0689 18.9362C17.1439 19.8612 15.7614 20.2674 14.4726 19.8137C11.1735 18.6544 8.17829 16.7659 5.71012 14.2887C3.23308 11.8209 1.34456 8.82615 0.185116 5.52744C-0.267384 4.23994 0.138866 2.85619 1.06387 1.93119L2.35637 0.638689Z" fill="#F8F8F8"/>
</g>
<defs>
<clipPath id="clip0_59_292">
<rect width="20" height="20" fill="white"/>
</clipPath>
</defs>
</svg>
