<svg width="35" height="35" viewBox="0 0 35 35" fill="none" xmlns="http://www.w3.org/2000/svg">
<path d="M27.7679 5.48333C26.242 3.96593 25.4011 2.01723 25.4018 0H18.5045V24.1111C18.4513 25.4159 17.8189 26.6518 16.7405 27.5585C15.6622 28.4652 14.222 28.972 12.7232 28.9722C9.55357 28.9722 6.91964 26.7167 6.91964 23.9167C6.91964 20.5722 10.625 18.0639 14.442 19.0944V12.95C6.74107 12.0556 0 17.2667 0 23.9167C0 30.3917 6.16072 35 12.7009 35C19.7098 35 25.4018 30.0417 25.4018 23.9167V11.6861C28.1987 13.4358 31.5566 14.3746 35 14.3694V8.36111C35 8.36111 30.8036 8.53611 27.7679 5.48333Z" fill="#F8F8F8"/>
</svg>
