<svg width="35" height="35" viewBox="0 0 35 35" fill="none" xmlns="http://www.w3.org/2000/svg">
<path d="M35 4.11765C33.7118 4.83824 32.3231 5.31177 30.8843 5.53824C32.3566 4.44706 33.4943 2.71765 34.0296 0.638235C32.641 1.66765 31.1018 2.38824 29.479 2.8C28.1573 1.02941 26.3002 0 24.1922 0C20.2605 0 17.0483 3.95294 17.0483 8.83235C17.0483 9.53235 17.1152 10.2118 17.2323 10.85C11.2763 10.4794 5.97275 6.95882 2.44264 1.62647C1.82361 2.92353 1.47228 4.44706 1.47228 6.05294C1.47228 9.12059 2.72706 11.8382 4.66778 13.3824C3.47992 13.3824 2.37572 12.9706 1.40535 12.3529V12.4147C1.40535 16.6971 3.88145 20.2794 7.16061 21.0824C6.10781 21.4369 5.00255 21.4862 3.93164 21.2265C4.38605 22.9816 5.27599 24.5173 6.47637 25.6178C7.67674 26.7183 9.12718 27.3282 10.6238 27.3618C8.08686 29.8333 4.94215 31.1692 1.7065 31.15C1.13767 31.15 0.568834 31.1088 0 31.0265C3.17878 33.5382 6.95985 35 11.0086 35C24.1922 35 31.4364 21.5353 31.4364 9.86176C31.4364 9.47059 31.4364 9.1 31.4197 8.70882C32.825 7.47353 34.0296 5.90882 35 4.11765Z" fill="#F8F8F8"/>
</svg>
