<svg width="35" height="35" viewBox="0 0 35 35" fill="none" xmlns="http://www.w3.org/2000/svg">
<g clip-path="url(#clip0_45_403)">
<rect width="35" height="35" fill="white"/>
<path d="M10.9375 35V23.4062C9.625 22.75 8.75 21.2187 8.75 19.6875V10.9375C8.75 9.40622 9.625 8.09372 10.9375 7.21872V6.56247C10.9375 4.15622 8.96875 2.18747 6.5625 2.18747C4.15625 2.18747 2.1875 4.15622 2.1875 6.56247C2.1875 8.96872 4.15625 10.9375 6.5625 10.9375H2.1875C1.09375 10.9375 0 12.0312 0 13.125V21.875C0 22.9687 1.09375 24.0625 2.1875 24.0625V35H10.9375ZM32.8125 10.9375H28.4375C30.8438 10.9375 32.8125 8.96872 32.8125 6.56247C32.8125 4.15622 30.8438 2.18747 28.4375 2.18747C26.0312 2.18747 24.0625 4.15622 24.0625 6.56247V7.21872C25.375 8.09372 26.25 9.40622 26.25 10.9375V19.6875C26.25 21.2187 25.375 22.75 24.0625 23.4062V35H32.8125V24.0625C33.9062 24.0625 35 22.9687 35 21.875V13.125C35 12.0312 33.9062 10.9375 32.8125 10.9375ZM21.875 4.37497C21.8882 4.95758 21.7848 5.53696 21.571 6.07908C21.3572 6.62121 21.0372 7.11515 20.6299 7.53191C20.2225 7.94867 19.736 8.27985 19.1989 8.506C18.6618 8.73216 18.085 8.84873 17.5022 8.84888C16.9194 8.84902 16.3425 8.73274 15.8053 8.50685C15.2681 8.28097 14.7814 7.95003 14.3739 7.53347C13.9663 7.11692 13.6461 6.62313 13.432 6.08112C13.2179 5.5391 13.1143 4.95978 13.1272 4.37715C13.1525 3.23405 13.6242 2.14627 14.4415 1.34666C15.2588 0.547049 16.3566 0.099163 17.5 0.0988771C18.6434 0.0985912 19.7415 0.545928 20.5591 1.34513C21.3768 2.14433 21.8491 3.23188 21.875 4.37497Z" fill="#028CAA"/>
<path d="M21.875 8.75H13.125C12.0312 8.75 10.9375 9.84375 10.9375 10.9375V19.6875C10.9375 20.7812 12.0312 21.875 13.125 21.875V35H21.875V21.875C22.9688 21.875 24.0625 20.7812 24.0625 19.6875V10.9375C24.0625 9.84375 22.9688 8.75 21.875 8.75Z" fill="#028CAA"/>
</g>
<defs>
<clipPath id="clip0_45_403">
<rect width="35" height="35" fill="white"/>
</clipPath>
</defs>
</svg>
