<svg width="35" height="35" viewBox="0 0 35 35" fill="none" xmlns="http://www.w3.org/2000/svg">
<path d="M14 25L23.0825 17.5L14 10V25ZM34.23 5.425C34.4575 6.6 34.615 8.175 34.72 10.175C34.8425 12.175 34.895 13.9 34.895 15.4L35 17.5C35 22.975 34.72 27 34.23 29.575C33.7925 31.825 32.7775 33.275 31.2025 33.9C30.38 34.225 28.875 34.45 26.565 34.6C24.29 34.775 22.2075 34.85 20.2825 34.85L17.5 35C10.1675 35 5.6 34.6 3.7975 33.9C2.2225 33.275 1.2075 31.825 0.77 29.575C0.5425 28.4 0.385 26.825 0.28 24.825C0.1575 22.825 0.105 21.1 0.105 19.6L0 17.5C0 12.025 0.28 8 0.77 5.425C1.2075 3.175 2.2225 1.725 3.7975 1.1C4.62 0.775 6.125 0.55 8.435 0.4C10.71 0.225 12.7925 0.15 14.7175 0.15L17.5 0C24.8325 0 29.4 0.4 31.2025 1.1C32.7775 1.725 33.7925 3.175 34.23 5.425Z" fill="#F8F8F8"/>
</svg>
