<svg width="19" height="25" viewBox="0 0 19 25" fill="none" xmlns="http://www.w3.org/2000/svg">
<path fill-rule="evenodd" clip-rule="evenodd" d="M2.78633 0.140003C1.83711 0.272506 1.33555 0.516262 0.976954 0.890021C0.619532 1.26503 0.386328 1.79004 0.258594 2.78132C0.127344 3.80259 0.125 5.15512 0.125 7.09392V17.8067C0.588715 17.4681 1.10368 17.2173 1.64727 17.0654C2.26602 16.8916 2.98789 16.8916 4.0461 16.8929H18.875V7.09517C18.875 5.15512 18.8727 3.80259 18.7414 2.78132C18.6137 1.79004 18.3805 1.26503 18.0231 0.890021C17.6645 0.516262 17.1629 0.272506 16.2137 0.140003C15.2363 0.00250005 13.9426 0 12.0863 0H6.91368C5.05742 0 3.76367 0.00250005 2.78633 0.140003ZM3.3582 5.74389C3.3582 5.18387 3.7918 4.73011 4.32735 4.73011H14.6727C14.9269 4.72778 15.1717 4.83303 15.3533 5.02281C15.535 5.21259 15.6387 5.47143 15.6418 5.74264C15.639 6.01406 15.5354 6.27322 15.3537 6.46327C15.1721 6.65332 14.9271 6.75874 14.6727 6.75641H4.32735C4.07309 6.75874 3.82833 6.65349 3.64668 6.46371C3.46503 6.27393 3.3613 6.01509 3.3582 5.74389ZM4.32735 9.46022C4.07309 9.45789 3.82833 9.56314 3.64668 9.75292C3.46503 9.9427 3.3613 10.2015 3.3582 10.4727C3.3582 11.0328 3.7918 11.4865 4.32735 11.4865H10.7926C11.047 11.4892 11.2921 11.3841 11.474 11.1943C11.6559 11.0044 11.7598 10.7454 11.7629 10.474C11.7601 10.2024 11.6564 9.94301 11.4744 9.75292C11.2925 9.56283 11.0472 9.45756 10.7926 9.46022H4.32735Z" fill="#FFDF4E"/>
<path d="M4.19395 18.9189H18.874C18.8705 20.3315 18.8494 21.3865 18.7416 22.219C18.6139 23.2103 18.3807 23.7353 18.0232 24.1103C17.6647 24.4841 17.1631 24.7278 16.2139 24.8603C15.2365 24.9978 13.9428 25.0003 12.0865 25.0003H6.9127C5.05645 25.0003 3.7627 24.9978 2.78535 24.8616C1.83613 24.7278 1.33457 24.4841 0.975977 24.1103C0.618555 23.7353 0.385351 23.2103 0.257617 22.219C0.20957 21.844 0.17793 21.4228 0.15918 20.944C0.320152 20.476 0.585215 20.0566 0.931604 19.722C1.27799 19.3873 1.69536 19.1474 2.14785 19.0227C2.4877 18.9277 2.92949 18.9189 4.19395 18.9189Z" fill="#FFDF4E"/>
</svg>
